<?xml version="1.0" encoding="utf-8"?>
<!-- Generator: Adobe Illustrator 12.0.0, SVG Export Plug-In . SVG Version: 6.00 Build 51448)  -->
<!DOCTYPE svg PUBLIC "-//W3C//DTD SVG 1.1//EN" "http://www.w3.org/Graphics/SVG/1.1/DTD/svg11.dtd" [
	<!ENTITY ns_svg "http://www.w3.org/2000/svg">
	<!ENTITY ns_xlink "http://www.w3.org/1999/xlink">
]>
<svg  version="1.1" id="Layer_1" xmlns="&ns_svg;" xmlns:xlink="&ns_xlink;" width="105.912" height="106.801"
	 viewBox="0 0 105.912 106.801" overflow="visible" enable-background="new 0 0 105.912 106.801" xml:space="preserve">
<g>
	<g>
		<g>
			<polygon fill-rule="evenodd" clip-rule="evenodd" points="59.111,6.218 59.111,6.218 59.184,6.218 59.184,6.218 59.184,6.218 
				59.184,6.29 59.111,6.362 59.111,6.362 59.04,6.434 59.04,6.362 59.04,6.29 59.04,6.29 59.111,6.218 59.111,6.218 59.111,6.218 
				59.111,6.218 59.111,6.218 			"/>
			<polygon fill-rule="evenodd" clip-rule="evenodd" points="51.408,13.994 52.344,13.994 52.632,14.93 52.632,15.794 
				52.704,16.658 52.92,17.45 52.992,17.45 52.992,17.45 52.992,17.45 53.064,17.45 53.352,14.282 53.424,14.282 53.424,14.21 
				53.424,14.21 53.496,13.994 54.792,14.21 54.792,15.578 54.792,17.09 54.792,18.53 54.792,19.97 54.792,20.69 54.792,21.554 
				54.792,22.346 54.648,23.066 54.504,23.138 54.216,23.138 54,23.138 53.855,23.066 53.641,18.818 53.136,22.994 53.064,23.066 
				52.992,23.066 52.92,23.066 52.776,23.066 52.56,21.986 52.416,20.906 52.344,19.754 52.2,18.746 52.2,18.746 52.2,18.746 
				52.056,18.746 52.056,18.746 51.912,22.994 51.84,23.066 51.552,23.066 51.408,23.066 51.192,23.066 51.048,22.706 
				51.048,22.274 51.12,21.77 51.048,21.266 51.048,21.122 51.048,20.906 51.048,20.834 51.048,20.618 51.048,19.898 51.048,19.106 
				51.048,18.458 51.048,17.666 51.048,17.45 51.048,17.09 51.048,16.946 51.048,16.658 51.048,16.082 51.048,15.506 51.048,14.786 
				51.048,14.282 51.12,14.21 51.192,13.994 51.264,13.994 51.408,13.994 			"/>
			<polygon fill-rule="evenodd" clip-rule="evenodd" points="48.456,14.282 49.32,14.354 49.536,14.426 49.608,14.714 49.68,15.002 
				49.752,15.146 49.752,15.794 49.896,16.226 49.896,16.658 49.896,17.09 48.96,17.234 48.744,16.874 48.744,16.298 48.744,15.722 
				48.528,15.146 48.528,15.146 48.456,15.074 48.456,15.074 48.384,15.074 48.384,15.074 48.384,15.074 48.24,15.074 48.24,15.146 
				48.24,16.946 48.384,18.602 48.528,20.402 48.6,22.202 48.6,22.274 48.744,22.418 48.816,22.418 48.888,22.418 48.96,22.418 
				49.176,22.418 49.176,22.418 49.176,22.418 49.248,21.626 49.176,21.05 49.176,20.33 49.176,19.682 49.32,19.61 49.536,19.538 
				49.896,19.538 50.04,19.61 50.112,20.33 50.256,21.194 50.256,21.914 50.256,22.778 49.896,23.066 49.536,23.138 48.888,23.282 
				48.384,23.282 48.096,23.138 47.88,22.994 47.664,22.778 47.592,22.562 47.448,20.474 47.232,18.53 47.088,16.514 47.232,14.642 
				48.456,14.282 			"/>
			<polygon fill-rule="evenodd" clip-rule="evenodd" points="56.664,14.426 57.527,14.642 56.664,22.634 57.168,22.778 
				57.24,22.922 57.24,23.066 57.24,23.138 57.168,23.354 55.512,23.282 55.729,21.122 55.943,18.818 56.304,16.586 56.664,14.426 
				56.664,14.426 56.664,14.426 56.664,14.426 56.664,14.426 			"/>
			<polygon fill-rule="evenodd" clip-rule="evenodd" points="44.928,14.714 45.216,14.714 45.576,15.578 45.792,16.658 
				46.08,17.738 46.224,18.818 46.512,19.97 46.728,21.122 46.944,22.274 47.232,23.282 47.016,23.498 46.872,23.57 46.656,23.57 
				46.512,23.57 46.152,22.994 46.08,22.346 45.864,21.626 45.72,21.05 45.72,20.474 45.576,20.042 45.432,19.61 45.36,19.178 
				45.576,23.57 45.576,23.57 45.504,23.57 45.504,23.714 45.432,23.714 45.36,23.786 45.36,23.786 45.216,23.786 45.144,23.714 
				43.632,19.322 43.56,19.322 43.56,19.322 43.56,19.322 43.488,19.538 44.352,23.858 44.208,23.93 44.064,23.93 43.848,24.074 
				43.56,23.93 43.272,22.922 43.056,21.842 42.84,20.906 42.696,19.754 42.336,18.602 42.12,17.594 41.904,16.514 41.76,15.506 
				42.912,15.074 44.208,18.53 44.208,18.53 44.28,18.53 44.28,18.53 44.28,18.53 44.064,14.93 44.928,14.714 			"/>
			<polygon fill-rule="evenodd" clip-rule="evenodd" points="60.12,14.786 60.84,15.074 60.624,17.81 60.695,17.81 60.695,17.81 
				60.84,17.81 60.84,17.81 61.704,15.578 61.992,15.362 62.641,15.578 61.992,17.594 61.344,19.754 60.84,21.842 60.624,23.93 
				60.552,24.074 60.552,24.146 60.48,24.146 60.48,24.146 59.76,23.93 60.12,20.618 60.12,20.618 60.12,20.474 60.12,20.474 
				59.977,20.474 59.977,20.474 59.904,20.474 59.904,20.474 59.832,20.474 58.752,23.57 57.888,23.498 57.888,23.138 57.96,22.994 
				58.031,22.778 58.176,22.418 58.968,20.618 59.328,18.818 59.76,17.018 59.904,15.074 60.12,14.786 60.12,14.786 60.12,14.786 
				60.12,14.786 60.12,14.786 			"/>
			<polygon fill-rule="evenodd" clip-rule="evenodd" points="39.24,15.938 39.24,15.938 39.24,15.938 39.312,15.938 39.384,15.938 
				39.6,16.874 39.24,17.018 38.736,17.09 38.232,17.306 37.872,17.45 37.44,17.594 36.936,17.81 36.576,17.954 36.216,18.242 
				35.208,18.602 34.272,19.106 33.336,19.682 32.4,20.114 31.608,20.69 30.672,21.266 29.808,21.914 28.944,22.634 28.44,22.994 
				27.936,23.498 27.432,23.93 26.784,24.29 26.712,24.506 26.712,24.578 26.568,24.65 26.568,24.938 26.712,25.082 26.784,25.226 
				26.928,25.298 27.072,25.37 27.504,25.082 27.936,24.866 28.296,24.434 28.728,24.074 28.728,24.074 28.8,23.93 28.8,23.93 
				28.8,23.93 30.888,22.346 32.04,21.626 32.904,21.05 33.984,20.402 35.136,19.754 36.288,19.25 37.44,18.746 38.664,18.242 
				40.032,17.81 40.032,17.81 40.032,17.81 40.032,17.81 40.032,17.954 40.248,18.746 38.952,19.178 37.728,19.754 36.432,20.258 
				35.28,20.906 34.128,21.482 33.192,21.986 32.04,22.778 30.96,23.57 30.888,23.57 30.744,23.714 30.6,23.858 30.528,23.93 
				30.312,23.93 30.312,24.074 30.24,24.146 30.24,24.218 30.312,24.29 30.528,24.29 30.528,24.434 30.6,24.434 31.824,23.93 
				32.976,23.498 34.128,22.778 35.28,21.986 36.576,21.266 37.728,20.69 39.024,20.114 40.464,19.754 40.464,19.754 40.536,19.754 
				40.536,19.754 40.608,19.754 40.824,20.618 40.176,20.906 39.456,21.194 38.88,21.482 38.088,21.77 37.512,21.986 36.792,22.418 
				36.216,22.706 35.568,23.066 35.208,23.282 34.848,23.498 34.488,23.714 34.056,23.93 33.768,24.146 33.408,24.29 33.192,24.578 
				32.76,24.866 32.616,24.938 32.472,25.082 32.4,25.082 32.4,25.226 32.4,26.162 32.4,26.234 32.4,26.234 32.4,26.234 
				32.4,26.234 32.832,25.946 33.336,25.658 33.696,25.37 34.128,25.082 34.56,24.866 34.92,24.578 35.28,24.29 35.568,24.146 
				36.288,23.786 36.936,23.498 37.584,23.066 38.304,22.778 39.024,22.418 39.672,22.202 40.464,21.914 41.256,21.626 
				41.544,22.634 39.024,23.57 38.88,23.786 38.592,23.858 38.232,23.93 38.088,24.146 37.728,24.29 37.224,24.506 36.792,24.65 
				36.432,25.01 36.072,25.226 35.856,25.442 35.424,25.658 35.064,25.802 34.488,26.234 33.912,26.594 33.408,26.954 
				32.832,27.314 32.4,27.746 31.896,28.106 31.32,28.61 30.888,29.186 30.888,29.402 30.888,29.546 30.96,29.618 31.104,29.834 
				31.248,29.906 31.248,29.906 31.248,29.978 31.248,29.978 31.824,29.546 32.4,29.114 32.904,28.61 33.552,28.106 33.984,27.746 
				34.704,27.314 35.136,26.954 35.856,26.594 35.856,26.522 35.928,26.522 35.928,26.45 36,26.45 36.288,26.234 36.576,26.162 
				36.792,25.802 37.008,25.73 37.368,25.586 37.728,25.442 37.944,25.298 38.304,25.226 38.736,25.01 39.24,24.65 39.6,24.578 
				40.032,24.29 40.464,24.218 40.896,23.93 41.328,23.858 41.76,23.786 41.976,24.65 40.824,25.082 39.816,25.586 38.736,26.162 
				37.728,26.738 36.648,27.314 35.64,27.962 34.704,28.61 33.768,29.402 32.832,30.194 32.04,30.914 31.104,31.778 30.312,32.642 
				29.592,33.578 28.8,34.514 28.224,35.378 27.432,36.386 27.144,36.89 26.856,37.394 26.568,37.826 26.28,38.402 26.28,38.402 
				26.28,38.402 26.28,38.402 26.136,38.546 25.92,39.122 25.632,39.698 25.344,40.274 25.2,40.922 24.768,41.57 24.48,42.362 
				24.264,43.082 24.048,43.946 23.76,44.738 23.472,45.242 23.04,45.89 22.464,46.394 22.104,46.538 21.816,46.61 21.528,46.754 
				21.24,46.898 20.736,46.97 20.376,47.042 20.016,47.114 19.512,47.114 19.296,47.402 19.152,47.69 19.152,48.05 19.08,48.266 
				18.864,48.482 18.72,48.554 18.36,48.554 18.144,48.554 18,48.482 17.928,48.41 17.928,48.41 17.784,48.266 17.928,47.114 
				17.928,46.97 17.712,46.754 17.64,46.754 17.568,46.682 16.992,46.394 16.632,46.034 16.272,45.746 16.056,45.386 15.624,45.026 
				15.336,44.666 15.12,44.09 14.976,43.73 15.264,42.074 15.624,40.418 16.2,38.762 16.776,37.25 17.568,35.738 18.288,34.37 
				19.08,33.002 19.8,31.706 20.232,31.058 20.592,30.554 20.952,29.906 21.384,29.402 21.528,29.114 21.744,28.826 21.96,28.466 
				22.176,28.25 22.896,27.314 23.616,26.522 24.48,25.586 25.344,24.65 26.136,23.93 27.072,23.066 27.936,22.418 28.728,21.626 
				29.52,21.122 30.24,20.474 31.104,20.042 31.896,19.538 32.76,18.962 33.552,18.602 34.344,18.17 35.208,17.738 35.424,17.666 
				35.424,17.594 35.568,17.45 35.856,17.45 39.24,15.938 			"/>
			<polygon fill-rule="evenodd" clip-rule="evenodd" points="65.16,16.154 65.664,16.298 66.24,16.442 66.672,16.658 67.104,16.946 
				67.607,17.09 68.111,17.306 68.472,17.45 68.977,17.738 69.264,17.954 69.624,18.17 69.984,18.242 70.271,18.458 70.775,18.602 
				71.136,18.89 71.641,19.178 72.072,19.538 72.504,19.754 73.08,20.042 73.439,20.33 73.872,20.618 74.447,21.122 74.952,21.482 
				75.313,21.77 75.816,22.202 76.68,22.922 77.615,23.714 78.48,24.434 79.271,25.298 80.136,26.162 81.072,26.954 81.792,27.962 
				82.584,28.898 83.304,29.978 84.168,31.274 84.96,32.498 85.68,33.794 86.4,35.09 86.977,36.458 87.624,37.898 88.128,39.41 
				88.416,40.274 88.704,41.066 89.064,42.074 89.279,42.938 89.279,43.226 89.208,43.514 89.136,43.73 89.064,43.946 
				88.632,44.378 88.416,44.882 88.128,45.242 87.912,45.53 87.552,45.89 86.977,46.178 86.615,46.394 86.4,46.754 86.472,47.114 
				86.544,47.546 86.472,47.906 86.4,48.266 86.184,48.41 85.824,48.41 85.607,48.41 85.32,48.266 85.031,47.906 84.888,47.546 
				84.527,47.042 84.168,46.754 83.736,46.754 83.304,46.754 82.943,46.682 82.584,46.61 82.225,46.394 81.792,46.322 
				81.432,46.178 81.145,45.89 80.641,44.45 79.992,43.154 79.344,41.786 78.768,40.49 77.977,39.122 77.328,37.898 76.536,36.746 
				75.744,35.378 74.952,34.226 73.943,33.074 73.08,31.922 72,30.986 70.92,29.978 69.768,29.042 68.615,28.106 67.32,27.314 
				66.744,27.098 66.24,26.738 65.52,26.45 64.943,26.162 64.296,25.73 63.72,25.442 63.145,25.082 62.424,24.866 62.279,24.65 
				62.136,24.434 62.279,24.146 62.424,23.93 62.783,23.93 63,23.93 63.359,24.146 63.792,24.29 64.152,24.434 64.439,24.578 
				64.8,24.866 65.16,25.01 65.52,25.082 65.809,25.226 66.023,25.37 66.384,25.442 67.031,25.802 67.752,26.378 68.472,26.738 
				69.12,27.17 69.695,27.674 70.416,28.106 70.992,28.466 71.712,29.114 71.928,29.258 72.072,29.402 72.288,29.618 72.432,29.762 
				72.72,29.618 72.792,29.546 72.936,29.474 73.08,29.258 73.08,29.186 72.072,28.25 71.136,27.53 70.056,26.738 69.048,25.946 
				67.968,25.37 66.96,24.65 65.809,24.146 64.656,23.57 64.152,23.354 63.72,23.138 63.216,22.922 62.855,22.778 62.928,21.842 
				63,21.842 63,21.842 63.145,21.842 63.145,21.77 63.936,21.986 64.656,22.418 65.447,22.706 66.24,23.066 66.96,23.498 
				67.752,23.858 68.472,24.29 69.12,24.65 69.48,24.938 69.768,25.082 70.128,25.37 70.488,25.586 70.775,25.802 71.136,26.162 
				71.568,26.378 71.783,26.594 71.928,26.594 71.928,26.594 71.928,26.594 71.928,26.594 72.072,26.45 72.072,26.234 72.072,26.09 
				72,25.802 71.136,25.01 70.128,24.218 69.264,23.57 68.111,22.922 67.104,22.418 65.952,21.842 64.943,21.266 63.792,20.834 
				63.648,20.69 63.504,20.474 63.504,20.402 63.504,20.114 63.648,20.114 63.648,20.042 63.648,19.97 63.72,19.898 63.72,19.898 
				63.792,19.898 63.792,19.898 63.936,19.898 64.656,20.114 65.52,20.474 66.313,20.906 67.104,21.266 67.896,21.626 
				68.544,21.986 69.336,22.418 70.056,22.922 70.416,23.138 70.775,23.354 70.992,23.57 71.279,23.786 71.641,23.93 71.928,24.146 
				72.145,24.29 72.432,24.578 72.792,24.65 73.152,24.578 73.512,24.578 73.8,24.434 73.152,23.858 72.432,23.282 71.783,22.778 
				71.136,22.346 70.416,21.914 69.624,21.482 68.904,21.05 68.111,20.474 67.607,20.33 67.104,20.114 66.672,19.97 66.313,19.754 
				65.809,19.538 65.447,19.322 64.943,19.106 64.439,18.89 64.368,18.818 64.296,18.746 64.296,18.602 64.296,18.458 
				64.368,18.386 64.368,18.242 64.439,18.242 64.439,18.17 64.512,18.026 64.512,18.026 64.512,18.026 64.656,18.026 
				65.592,18.458 66.6,18.818 67.464,19.178 68.472,19.682 69.336,20.114 70.128,20.474 70.992,21.05 71.928,21.554 72.145,21.77 
				72.504,21.986 72.792,22.274 73.225,22.418 73.512,22.778 73.872,22.994 74.232,23.138 74.592,23.498 76.896,25.298 
				76.968,25.298 77.111,25.226 77.256,25.082 77.328,24.938 77.328,24.866 77.328,24.866 77.328,24.866 77.328,24.65 76.68,24.074 
				75.96,23.498 75.168,22.778 74.447,22.346 73.8,21.77 73.08,21.266 72.288,20.69 71.568,20.258 70.775,19.754 69.984,19.322 
				69.264,18.962 68.544,18.602 67.824,18.386 67.104,17.954 66.384,17.594 65.664,17.234 65.088,16.874 65.088,16.154 
				65.088,16.154 65.088,16.154 65.088,16.154 65.16,16.154 			"/>
			<polygon fill-rule="evenodd" clip-rule="evenodd" fill="#FFFFFF" points="30.096,25.226 30.528,25.226 30.888,25.37 
				31.032,25.442 31.248,25.73 31.32,26.45 31.248,26.954 30.888,27.602 30.528,28.034 30.24,28.25 30.096,28.466 29.736,28.61 
				29.52,28.826 29.232,28.898 28.944,29.042 28.584,29.114 28.224,29.114 28.008,29.042 27.864,28.898 27.648,28.898 
				27.504,28.826 27.432,28.466 27.432,28.106 27.432,27.746 27.504,27.314 27.864,26.954 28.008,26.594 28.296,26.234 
				28.584,25.946 28.944,25.73 29.376,25.442 29.736,25.37 30.096,25.226 			"/>
			<polygon fill-rule="evenodd" clip-rule="evenodd" fill="#FFFFFF" points="73.584,25.37 73.943,25.37 74.447,25.442 
				74.736,25.586 75.096,25.802 75.384,26.09 75.744,26.378 76.104,26.594 76.32,26.954 76.464,27.314 76.607,27.89 76.68,28.322 
				76.536,28.826 76.248,29.042 75.96,29.186 75.6,29.186 75.168,29.114 74.592,28.826 73.872,28.394 73.439,27.89 73.08,27.242 
				72.792,26.882 72.72,26.522 72.72,26.09 72.936,25.73 73.08,25.586 73.296,25.442 73.439,25.442 73.584,25.37 			"/>
			<polygon fill-rule="evenodd" clip-rule="evenodd" fill="#FFFFFF" points="25.56,25.73 25.92,25.802 26.136,25.946 26.352,26.234 
				26.568,26.45 26.712,27.242 26.712,28.106 26.352,28.898 26.064,29.618 25.776,29.978 25.56,30.41 25.2,30.626 24.624,30.626 
				24.552,30.554 24.48,30.554 24.408,30.554 24.408,30.554 24.048,30.266 23.76,29.762 23.616,29.258 23.616,28.754 23.76,27.962 
				24.048,27.17 24.408,26.522 24.912,25.946 25.2,25.802 25.272,25.802 25.416,25.802 25.56,25.73 			"/>
			<polygon fill-rule="evenodd" clip-rule="evenodd" fill="#FFFFFF" points="78.552,25.73 78.984,25.802 79.344,26.162 
				79.775,26.45 79.992,26.882 80.279,27.314 80.352,28.034 80.424,28.754 80.352,29.402 80.136,29.978 79.92,30.338 79.632,30.41 
				79.271,30.554 78.984,30.554 78.84,30.41 78.768,30.41 78.624,30.338 78.552,30.266 78.48,30.194 78.408,29.978 78.408,29.978 
				78.264,29.906 78.048,29.618 77.977,29.474 77.832,29.258 77.76,29.042 77.688,28.754 77.688,28.394 77.615,28.106 
				77.615,27.962 77.615,27.314 77.615,26.81 77.832,26.234 78.191,25.802 78.264,25.802 78.408,25.802 78.48,25.73 78.552,25.73 
							"/>
			<polygon fill-rule="evenodd" clip-rule="evenodd" fill="#FFFFFF" points="28.584,29.618 29.016,29.618 29.736,29.762 
				30.168,29.978 30.6,30.41 30.672,30.698 30.672,30.914 30.6,31.13 30.6,31.418 30.168,31.85 29.736,32.21 29.088,32.498 
				28.44,32.642 27.936,32.642 27.288,32.642 26.784,32.57 26.28,32.282 26.064,32.138 25.992,31.85 25.992,31.562 25.992,31.274 
				26.352,30.698 26.856,30.338 27.432,29.978 28.008,29.762 28.224,29.762 28.296,29.618 28.368,29.618 28.584,29.618 			"/>
			<polygon fill-rule="evenodd" clip-rule="evenodd" fill="#FFFFFF" points="74.952,29.618 75.313,29.618 75.744,29.762 
				76.104,29.906 76.464,29.978 76.896,30.266 77.256,30.554 77.472,30.77 77.688,31.13 77.76,31.49 77.832,31.706 77.832,31.922 
				77.76,32.21 77.615,32.282 77.328,32.498 77.111,32.642 76.896,32.642 76.464,32.642 76.104,32.642 75.816,32.642 75.527,32.642 
				74.952,32.426 74.376,32.21 73.8,31.922 73.439,31.49 73.296,31.13 73.225,30.914 73.225,30.626 73.296,30.41 73.584,29.978 
				73.943,29.834 74.447,29.762 74.952,29.618 			"/>
			<polygon fill-rule="evenodd" clip-rule="evenodd" points="50.4,29.906 51.408,29.906 52.416,29.906 53.352,29.906 54.432,29.978 
				55.368,30.194 56.376,30.338 57.456,30.626 58.464,30.914 59.904,31.418 61.271,31.922 62.424,32.498 63.648,33.218 
				64.729,33.794 65.809,34.73 66.96,35.666 67.968,36.602 68.111,36.746 68.111,36.746 68.111,36.746 68.111,36.746 68.111,36.818 
				68.184,36.818 68.184,36.89 68.256,36.89 69.048,37.826 68.977,38.186 67.752,38.186 66.96,37.394 66.24,36.602 65.447,35.954 
				64.512,35.378 63.72,34.73 62.783,34.226 61.848,33.65 60.84,33.218 59.904,32.642 58.968,32.282 57.816,32.066 56.809,31.778 
				55.729,31.562 54.648,31.418 53.496,31.13 52.416,31.13 52.2,31.13 51.84,31.13 51.408,31.13 51.048,31.13 50.76,31.13 
				50.4,31.13 50.04,31.274 49.752,31.274 49.608,31.274 49.536,31.274 49.392,31.274 49.248,31.274 48.744,31.418 48.168,31.562 
				47.592,31.562 47.232,31.778 46.656,31.922 46.08,32.066 45.576,32.21 45,32.282 43.488,32.858 42.12,33.434 40.824,34.37 
				39.6,35.234 38.52,36.242 37.368,37.106 36.072,37.826 34.704,38.402 34.704,38.402 34.56,38.402 34.56,38.402 34.56,38.402 
				34.488,38.33 34.488,38.33 34.488,38.33 34.488,38.258 34.704,37.754 35.064,37.466 35.424,37.106 35.64,36.746 36.216,36.098 
				36.72,35.738 37.368,35.234 37.872,34.73 38.304,34.37 38.88,34.082 39.24,33.65 39.672,33.362 40.104,33.074 40.464,33.002 
				40.824,32.642 41.256,32.57 41.904,32.282 42.552,31.922 43.2,31.706 43.92,31.418 44.568,31.13 45.36,30.914 45.936,30.698 
				46.656,30.41 47.232,30.41 47.592,30.338 48.096,30.338 48.456,30.266 48.744,30.194 48.888,29.978 49.176,29.978 49.392,29.978 
				49.608,29.978 49.896,29.978 50.112,29.978 50.4,29.906 			"/>
			<polygon fill-rule="evenodd" clip-rule="evenodd" fill="#FFFFFF" points="82.584,30.338 82.943,30.41 83.304,30.698 
				83.592,30.986 83.809,31.418 84.096,32.21 84.096,33.074 84.096,33.794 83.736,34.586 83.304,34.946 82.943,35.09 82.656,35.09 
				82.296,34.946 82.008,34.73 81.576,34.082 81.432,33.29 81.288,32.498 81.432,31.706 81.432,31.274 81.648,30.914 81.863,30.626 
				82.225,30.41 82.296,30.41 82.439,30.41 82.584,30.41 82.584,30.338 			"/>
			<polygon fill-rule="evenodd" clip-rule="evenodd" fill="#FFFFFF" points="21.744,30.41 21.888,30.41 22.104,30.554 22.32,30.698 
				22.608,30.77 22.896,31.706 23.04,32.498 22.968,33.434 22.752,34.226 22.68,34.442 22.608,34.586 22.464,34.586 22.464,34.802 
				22.176,34.946 21.888,35.162 21.528,35.234 21.096,35.378 20.664,35.09 20.376,34.586 20.232,33.938 20.232,33.29 20.232,32.57 
				20.376,31.922 20.592,31.49 20.808,30.986 21.24,30.626 21.384,30.554 21.528,30.554 21.6,30.554 21.744,30.41 			"/>
			<polygon fill-rule="evenodd" clip-rule="evenodd" fill="#FFFFFF" points="25.632,33.578 26.064,33.578 26.712,33.65 
				27.072,33.794 27.432,34.154 27.432,34.586 27.288,35.162 27.072,35.666 26.784,36.026 26.352,36.242 25.992,36.458 
				25.56,36.746 25.2,36.89 24.624,36.89 24.12,36.89 23.688,36.89 23.256,36.602 23.112,36.386 22.968,36.026 22.968,35.738 
				23.112,35.378 23.328,34.946 23.616,34.73 23.76,34.442 24.192,34.226 24.48,34.082 24.84,33.794 25.272,33.722 25.632,33.578 
							"/>
			<polygon fill-rule="evenodd" clip-rule="evenodd" fill="#FFFFFF" points="77.76,33.65 78.264,33.722 78.768,33.794 
				79.128,33.794 79.632,34.082 79.992,34.226 80.352,34.586 80.641,34.874 80.928,35.234 81.072,35.522 81.072,35.738 
				81.072,36.026 81.072,36.242 80.928,36.314 80.928,36.386 80.928,36.386 80.928,36.458 80.641,36.746 80.279,36.818 79.92,36.89 
				79.561,36.89 79.128,36.89 78.768,36.818 78.408,36.602 77.977,36.458 77.472,36.098 77.111,35.738 76.68,35.378 76.464,34.946 
				76.464,34.73 76.464,34.586 76.464,34.442 76.536,34.226 76.896,33.938 77.111,33.794 77.4,33.722 77.76,33.65 			"/>
			<polygon fill-rule="evenodd" clip-rule="evenodd" fill="#FFFFFF" points="101.592,33.938 101.664,33.938 101.736,33.938 
				101.736,33.938 101.809,34.082 101.952,34.442 101.952,34.802 101.952,35.234 101.736,35.666 101.304,36.026 100.872,36.242 
				100.152,36.386 99.576,36.386 99.145,36.242 98.928,36.026 98.568,35.738 98.424,35.378 98.352,35.378 98.352,35.162 
				98.352,35.09 98.352,34.946 101.592,33.938 			"/>
			<polygon fill-rule="evenodd" clip-rule="evenodd" fill="#FFFFFF" points="85.031,35.234 85.824,35.522 86.4,36.098 86.615,36.89 
				86.615,37.61 86.544,38.546 86.472,38.906 86.256,39.266 85.968,39.554 85.68,39.914 85.248,40.13 84.888,40.058 84.456,39.77 
				83.952,39.05 83.809,38.258 83.809,37.25 83.952,36.458 84.096,36.098 84.456,35.738 84.6,35.378 85.031,35.234 			"/>
			<polygon fill-rule="evenodd" clip-rule="evenodd" fill="#FFFFFF" points="18.792,35.522 19.152,35.594 19.44,35.738 19.8,36.098 
				20.016,36.386 20.232,37.178 20.304,37.898 20.304,38.762 20.232,39.554 19.944,39.914 19.656,40.202 19.296,40.418 
				18.936,40.49 18.576,40.274 18.144,40.058 17.928,39.77 17.712,39.482 17.568,38.546 17.424,37.61 17.568,36.746 17.928,35.882 
				18,35.882 18.072,35.738 18.072,35.738 18.144,35.738 18.792,35.522 18.792,35.522 18.792,35.522 18.792,35.522 18.792,35.522 
							"/>
			<polygon fill-rule="evenodd" clip-rule="evenodd" fill="#FFFFFF" points="23.688,37.754 24.048,37.826 24.408,37.898 
				24.552,38.042 24.768,38.33 24.912,38.762 24.84,39.41 24.624,39.842 24.408,40.202 24.12,40.49 23.76,40.706 23.4,40.994 
				23.04,41.21 22.68,41.354 22.248,41.426 21.888,41.426 21.456,41.426 21.24,41.426 21.024,41.282 20.808,41.21 20.664,41.066 
				20.592,40.562 20.592,40.202 20.736,39.77 20.952,39.41 21.24,39.05 21.528,38.762 21.816,38.546 22.104,38.33 22.464,38.042 
				22.896,37.898 23.256,37.826 23.688,37.754 			"/>
			<polygon fill-rule="evenodd" clip-rule="evenodd" fill="#FFFFFF" points="79.92,37.898 80.279,38.042 80.496,38.042 
				80.855,38.186 81.145,38.258 81.792,38.618 82.368,39.122 82.8,39.842 83.016,40.49 82.943,40.85 82.8,41.066 82.584,41.282 
				82.368,41.426 81.863,41.426 81.504,41.354 81.072,41.282 80.641,41.066 80.279,40.994 79.92,40.706 79.561,40.49 79.199,40.202 
				78.912,39.842 78.768,39.41 78.768,38.906 78.768,38.402 78.84,38.402 78.84,38.33 78.84,38.33 78.912,38.258 79.92,37.898 			
				"/>
			<polygon fill-rule="evenodd" clip-rule="evenodd" points="56.664,38.33 57.096,38.33 57.456,38.33 57.816,38.33 58.031,38.33 
				58.464,38.402 58.752,38.402 59.111,38.402 59.4,38.402 60.12,38.402 60.624,38.546 61.344,38.618 61.992,38.69 62.568,38.762 
				63.145,38.978 63.72,39.122 64.296,39.482 65.088,39.698 65.809,39.842 66.6,39.914 67.393,40.13 68.184,40.202 68.977,40.274 
				69.768,40.274 70.561,40.202 70.92,40.274 71.352,40.274 71.928,40.202 72.288,40.13 72.72,40.058 73.225,40.202 73.584,40.418 
				74.016,40.85 74.376,41.21 74.736,41.57 75.096,42.002 75.384,42.218 75.744,42.506 75.96,42.866 76.248,43.154 76.607,43.514 
				76.968,43.73 77.256,44.09 77.615,44.378 77.76,44.738 78.408,45.242 78.84,45.818 79.344,46.394 79.92,46.754 79.561,47.042 
				78.984,47.114 78.48,47.33 77.977,47.33 77.328,47.402 76.896,47.402 76.248,47.474 75.744,47.546 75.384,47.474 75.096,47.474 
				74.952,47.546 74.592,47.474 73.8,47.474 73.08,47.474 72.145,47.402 71.279,47.33 70.561,47.114 69.695,46.898 68.977,46.754 
				68.111,46.538 67.32,46.394 66.6,46.178 65.809,46.034 64.943,45.746 64.152,45.602 63.359,45.53 62.568,45.458 61.775,45.386 
				61.488,45.386 61.271,45.386 60.84,45.386 60.552,45.386 60.264,45.386 59.977,45.386 59.76,45.386 59.328,45.386 58.607,45.458 
				57.816,45.53 56.952,45.602 56.16,45.89 55.296,46.034 54.576,46.322 53.712,46.394 52.992,46.61 52.92,44.81 52.776,42.866 
				52.776,40.994 52.776,39.122 53.279,38.906 53.641,38.762 54.145,38.69 54.792,38.618 55.152,38.546 55.729,38.402 
				56.304,38.402 56.664,38.33 			"/>
			<polygon fill-rule="evenodd" clip-rule="evenodd" points="44.64,38.402 45.216,38.402 45.72,38.402 46.224,38.402 46.872,38.402 
				47.304,38.402 47.88,38.402 48.384,38.546 48.888,38.618 49.32,38.618 49.68,38.762 50.04,38.762 50.472,38.906 50.544,38.906 
				50.544,38.978 50.544,38.978 50.544,38.978 50.688,38.978 50.688,38.762 50.76,38.762 50.688,38.906 50.688,38.978 
				50.688,38.906 50.688,38.906 50.688,38.978 50.832,38.978 51.192,39.122 50.904,46.682 49.896,46.394 48.744,46.034 
				47.592,45.818 46.512,45.602 45.36,45.458 44.208,45.242 43.128,45.242 41.976,45.242 41.4,45.386 40.824,45.386 40.248,45.458 
				39.672,45.53 39.096,45.602 38.592,45.602 37.944,45.818 37.44,46.034 37.008,46.178 36.576,46.25 36.216,46.394 35.856,46.394 
				34.776,46.682 33.768,46.898 32.76,47.114 31.68,47.33 30.744,47.402 29.736,47.474 28.656,47.474 27.648,47.474 27.288,47.474 
				26.928,47.402 26.424,47.402 26.064,47.402 25.704,47.33 25.344,47.114 24.912,47.114 24.552,47.042 24.48,47.042 24.48,46.97 
				24.48,46.97 24.48,46.898 25.2,46.034 25.92,45.242 26.712,44.378 27.432,43.514 28.296,42.578 29.088,41.786 29.88,40.994 
				30.672,40.058 30.744,40.058 30.744,39.914 30.888,39.914 30.888,39.914 31.608,40.13 32.472,40.202 33.336,40.274 
				34.128,40.274 35.064,40.274 35.856,40.202 36.648,40.058 37.512,39.842 38.52,39.698 39.24,39.482 40.176,39.122 41.184,38.978 
				41.904,38.762 42.84,38.618 43.848,38.402 44.64,38.402 			"/>
			<polygon fill-rule="evenodd" clip-rule="evenodd" fill="#FFFFFF" points="16.776,40.922 17.136,40.994 17.568,41.21 
				17.784,41.426 18,41.786 18.144,42.146 18.288,42.362 18.288,42.578 18.36,42.938 18.432,43.658 18.432,44.306 18.288,45.026 
				17.928,45.53 17.712,45.602 17.424,45.746 17.136,45.746 16.848,45.602 16.416,45.242 16.128,44.882 15.912,44.306 15.624,43.73 
				15.624,42.938 15.624,42.218 15.768,41.57 16.272,41.066 16.416,40.994 16.56,40.994 16.632,40.994 16.776,40.922 			"/>
			<polygon fill-rule="evenodd" clip-rule="evenodd" fill="#FFFFFF" points="87.191,40.994 87.768,41.066 88.271,41.426 
				88.416,42.002 88.488,42.578 88.488,43.154 88.344,43.946 88.128,44.45 87.768,45.17 87.264,45.53 87.12,45.602 86.832,45.602 
				86.615,45.602 86.4,45.602 86.04,45.386 85.824,44.882 85.68,44.45 85.607,44.09 85.68,43.154 85.968,42.362 86.4,41.57 
				86.904,41.066 86.977,41.066 87.12,40.994 87.12,40.994 87.191,40.994 			"/>
			<polygon fill-rule="evenodd" clip-rule="evenodd" fill="#FFFFFF" points="21.888,42.434 22.176,42.434 22.608,42.506 
				22.896,42.578 23.04,42.866 23.256,43.37 23.256,43.73 23.112,44.234 22.896,44.738 22.68,45.026 22.464,45.242 22.176,45.602 
				21.888,45.818 21.6,46.034 21.24,46.25 20.808,46.394 20.448,46.394 20.232,46.394 19.944,46.394 19.656,46.322 19.44,46.178 
				19.296,45.602 19.44,45.17 19.44,44.738 19.656,44.234 20.232,43.658 20.592,43.082 21.24,42.722 21.888,42.434 			"/>
			<polygon fill-rule="evenodd" clip-rule="evenodd" fill="#FFFFFF" points="81.863,42.722 82.296,42.794 82.729,42.866 
				83.016,42.938 83.376,43.154 83.736,43.37 84.096,43.658 84.313,43.874 84.527,44.09 84.888,44.666 84.96,45.17 85.031,45.602 
				84.888,46.178 84.6,46.322 84.313,46.394 84.096,46.394 83.809,46.394 83.52,46.394 83.16,46.25 82.943,46.178 82.584,46.034 
				81.863,45.53 81.432,44.882 81.072,44.234 80.928,43.514 81.072,43.154 81.288,42.938 81.504,42.794 81.792,42.722 
				81.792,42.722 81.863,42.722 81.863,42.722 81.863,42.722 			"/>
			<polygon fill-rule="evenodd" clip-rule="evenodd" points="70.271,53.234 76.248,53.234 76.464,53.522 76.464,53.954 
				76.536,54.314 76.68,54.674 76.896,55.754 76.896,56.834 76.896,57.915 76.607,58.85 76.464,59.642 76.176,60.362 75.888,61.01 
				75.6,61.514 75.313,61.946 75.096,62.306 74.809,62.594 74.592,62.954 74.232,63.314 73.872,63.602 73.584,63.818 73.225,64.106 
				72.504,63.818 71.928,63.458 71.208,63.026 70.632,62.667 69.984,62.45 69.408,62.09 68.688,61.73 68.111,61.37 68.111,61.37 
				68.111,61.37 68.111,61.37 68.111,61.297 68.111,61.01 68.184,60.721 68.472,60.362 68.544,60.002 69.12,60.217 69.695,60.579 
				70.271,60.793 70.775,61.083 71.352,61.297 71.928,61.442 72.504,61.514 73.152,61.37 73.512,61.154 73.872,61.01 74.304,60.793 
				74.592,60.579 74.952,60.29 75.168,60.002 75.384,59.642 75.6,59.426 75.816,58.346 75.744,57.338 75.384,56.545 74.952,55.754 
				74.376,55.394 73.8,55.034 73.225,54.89 72.504,54.818 71.928,54.674 71.208,54.674 70.632,54.602 69.984,54.458 69.984,53.377 
				69.984,53.306 70.056,53.234 70.128,53.234 70.271,53.234 			"/>
			<polygon fill-rule="evenodd" clip-rule="evenodd" points="30.96,53.306 33.552,53.306 33.624,53.522 33.696,53.954 
				33.696,54.314 33.624,54.674 32.976,54.674 32.4,54.818 31.68,54.89 31.032,54.961 30.528,55.034 29.808,55.394 29.376,55.682 
				28.8,56.186 28.584,56.762 28.296,57.338 28.224,58.058 28.224,58.633 28.584,59.499 29.016,60.217 29.736,60.793 30.528,61.154 
				30.744,61.297 31.032,61.37 31.32,61.37 31.608,61.37 31.896,61.297 32.184,61.154 32.472,61.154 32.76,61.083 33.192,60.938 
				33.408,60.793 33.696,60.721 33.984,60.579 34.272,60.362 34.56,60.217 34.848,60.146 35.136,60.002 35.856,61.154 
				35.856,61.154 35.856,61.297 35.856,61.37 35.64,61.37 30.312,64.106 29.592,63.458 28.944,62.667 28.296,61.874 27.864,60.938 
				27.432,59.93 27.144,58.85 26.928,57.698 26.856,56.618 26.928,55.826 27.072,54.961 27.144,54.242 27.504,53.45 30.96,53.306 
							"/>
			<polygon fill-rule="evenodd" clip-rule="evenodd" points="80.712,53.377 90.432,53.667 90.576,53.667 90.576,53.881 
				90.648,53.954 90.648,54.098 90.576,54.818 90.576,55.682 90.432,56.402 90.288,57.194 89.568,57.194 88.92,57.194 
				88.271,57.122 87.552,56.978 86.832,56.978 86.184,56.834 85.464,56.834 84.888,56.762 84.313,56.762 83.952,56.834 
				83.52,56.906 83.088,56.978 82.729,57.194 82.368,57.338 82.008,57.625 81.792,57.915 81.072,58.778 80.424,59.786 
				80.279,60.793 80.136,61.946 80.424,63.026 80.928,63.818 81.576,64.61 82.368,65.258 82.943,65.545 83.592,65.906 
				84.168,66.122 84.888,66.482 85.607,66.77 86.184,67.129 86.832,67.418 87.552,67.633 85.968,70.801 85.464,70.658 
				85.104,70.658 84.6,70.442 84.24,70.226 83.88,69.938 83.376,69.793 83.016,69.506 82.656,69.362 81.936,69.002 81.216,68.642 
				80.496,68.209 79.92,67.85 79.128,67.49 78.408,67.129 77.688,66.698 77.04,66.338 77.04,65.186 77.111,64.034 77.328,62.881 
				77.472,61.658 77.615,61.01 77.76,60.29 77.832,59.642 77.977,58.994 78.264,58.418 78.48,57.698 78.768,57.266 78.912,56.618 
				79.271,55.826 79.704,54.89 80.136,54.17 80.641,53.377 80.641,53.377 80.712,53.377 80.712,53.377 80.712,53.377 			"/>
			<polygon fill-rule="evenodd" clip-rule="evenodd" points="21.528,53.45 21.96,53.45 22.464,53.45 22.968,53.45 23.472,53.522 
				23.688,53.954 23.904,54.314 24.048,54.674 24.264,55.034 24.768,56.186 25.344,57.553 25.776,58.85 26.136,60.217 26.424,61.73 
				26.712,63.314 26.856,64.754 26.928,66.266 18.288,70.946 17.712,70.297 17.352,69.506 16.92,68.713 16.56,67.85 16.56,67.85 
				16.632,67.778 16.632,67.633 16.632,67.633 16.848,67.562 17.136,67.418 17.424,67.274 17.712,67.202 18.288,66.842 
				19.08,66.625 19.656,66.41 20.376,66.122 20.952,65.69 21.6,65.474 22.176,65.114 22.68,64.61 23.256,63.818 23.616,62.81 
				23.76,61.73 23.688,60.721 23.472,59.642 23.04,58.85 22.464,58.129 21.744,57.553 21.384,57.338 20.952,57.194 20.448,56.978 
				20.016,56.906 19.512,56.906 19.08,56.834 18.576,56.834 18.072,56.906 17.568,56.978 16.992,56.978 16.488,57.122 
				16.056,57.194 15.48,57.266 14.976,57.266 14.472,57.338 13.896,57.338 13.752,56.618 13.608,55.682 13.536,54.674 
				13.464,53.881 13.608,53.667 13.824,53.667 14.112,53.738 14.256,53.667 15.264,53.667 16.128,53.667 16.992,53.667 
				17.928,53.522 18.792,53.522 19.656,53.522 20.592,53.522 21.528,53.45 			"/>
			<polygon fill-rule="evenodd" clip-rule="evenodd" points="72.072,55.826 72.648,55.826 73.152,55.969 73.584,56.186 
				73.943,56.618 74.304,56.978 74.592,57.482 74.592,58.058 74.592,58.49 74.304,58.994 73.943,59.499 73.512,59.858 73.08,60.002 
				72.504,60.146 71.928,60.002 71.568,59.858 70.992,59.642 70.632,59.209 70.416,58.49 70.416,57.915 70.416,57.266 
				70.775,56.834 71.136,56.402 71.568,56.114 72.072,55.826 			"/>
			<polygon fill-rule="evenodd" clip-rule="evenodd" points="31.608,55.826 32.112,55.969 32.472,56.114 32.832,56.331 
				33.192,56.762 33.408,57.338 33.552,57.915 33.552,58.49 33.336,58.994 32.904,59.426 32.472,59.642 32.04,59.93 31.464,60.002 
				30.888,59.858 30.168,59.57 29.808,59.066 29.52,58.49 29.52,57.915 29.592,57.266 29.88,56.762 30.24,56.186 30.6,56.114 
				30.888,55.969 31.248,55.969 31.608,55.826 			"/>
			<path d="M31.608,55.754h0.072l0.432,0.144l0,0l0.36,0.144v0.072l0.432,0.217l0,0l0.288,0.359l0,0l0.216,0.648l0,0l0.216,0.504
				v0.072v0.575l0,0l-0.288,0.576l0,0l-0.36,0.36l0,0l-0.504,0.287l-0.432,0.289l0,0l-0.504,0.071V59.93l0.432-0.072l0.504-0.288
				l0,0l0.432-0.216l0.36-0.36l0.216-0.504v-0.575l-0.144-0.576l-0.216-0.576l-0.288-0.36l-0.36-0.216l-0.432-0.145l0,0
				l-0.432-0.144l-0.072,0.071v-0.144L31.608,55.754z M31.536,60.074h-0.072l0,0l-0.576-0.144h-0.072l-0.648-0.288V59.57
				l-0.432-0.433l0,0l-0.288-0.647l0,0v-0.575v-0.072l0.072-0.576l0,0l0.288-0.576l0,0l0.432-0.504l0,0l0.288-0.145l0.288-0.144
				h0.072h0.36l0.288-0.072v0.144l-0.288,0.072l0,0h-0.36L30.6,56.186l0,0l-0.288,0.072l-0.36,0.504l-0.288,0.504l-0.072,0.648
				v0.575l0.288,0.576l0.36,0.433l0.648,0.287l0.576,0.145h0.072V60.074z"/>
			<polygon fill-rule="evenodd" clip-rule="evenodd" points="67.393,62.09 72.648,64.898 72.504,65.906 72.288,66.842 71.783,67.85 
				71.279,68.642 70.775,69.362 70.271,70.083 69.624,70.658 68.904,71.306 68.184,71.81 67.393,72.17 66.6,72.602 65.809,72.961 
				65.447,72.961 65.232,72.961 65.088,73.106 64.656,73.178 64.296,72.602 63.792,72.026 63.288,71.45 62.928,70.658 
				62.568,70.154 62.279,69.434 61.775,68.786 61.416,68.137 61.632,67.922 61.775,67.633 62.064,67.633 62.424,67.49 
				62.424,67.418 62.424,67.418 62.496,67.418 62.496,67.418 62.855,67.85 63.216,68.354 63.648,68.786 64.08,69.362 64.439,69.866 
				65.088,70.226 65.592,70.514 66.313,70.658 66.744,70.658 67.32,70.658 67.752,70.586 68.111,70.442 68.544,70.226 
				68.904,69.938 69.264,69.65 69.48,69.29 69.984,68.354 70.056,67.49 69.984,66.482 69.624,65.618 69.336,65.258 69.048,64.898 
				68.615,64.61 68.256,64.178 67.824,64.034 67.393,63.747 67.031,63.458 66.672,63.026 66.672,63.026 66.672,63.026 
				66.672,62.954 66.672,62.881 67.32,62.09 67.32,62.09 67.393,62.09 67.393,62.09 67.393,62.09 			"/>
			<polygon fill-rule="evenodd" clip-rule="evenodd" points="36.288,62.306 36.936,63.314 36.936,63.314 36.936,63.385 
				36.936,63.385 36.936,63.458 36.36,63.818 35.856,64.178 35.136,64.754 34.704,65.258 34.128,65.906 33.768,66.482 
				33.624,67.274 33.624,68.137 33.912,69.074 34.488,69.793 35.064,70.297 35.856,70.658 36.36,70.801 36.936,70.801 37.44,70.801 
				37.944,70.658 38.52,70.297 38.952,70.083 39.312,69.506 39.672,69.146 40.032,68.713 40.392,68.209 40.752,67.85 41.256,67.49 
				42.264,67.994 41.904,68.93 41.4,69.65 40.824,70.442 40.392,71.306 40.032,71.81 39.672,72.17 39.384,72.818 39.096,73.25 
				38.88,73.322 38.664,73.25 38.304,73.178 38.088,73.178 37.512,72.961 36.936,72.747 36.576,72.53 36,72.17 35.136,71.738 
				34.272,71.018 33.624,70.297 32.904,69.506 32.4,68.786 32.04,67.922 31.464,66.842 31.248,65.978 31.248,65.69 31.104,65.545 
				31.104,65.331 31.248,65.258 36.216,62.306 36.216,62.306 36.288,62.306 36.288,62.306 36.288,62.306 			"/>
			<path fill-rule="evenodd" clip-rule="evenodd" d="M66.744,65.114h0.576l0.576,0.217l0.575,0.287l0.433,0.504l0.144,0.504v0.648
				l-0.071,0.504l-0.072,0.432c-0.145,0.145-0.217,0.289-0.36,0.433l-0.288,0.288l-0.359,0.216l-0.504,0.144h-0.648l-0.504-0.144
				l-0.576-0.36l-0.36-0.216l-0.216-0.647l-0.145-0.648l0.145-0.576l0.216-0.576h0.144v-0.144v-0.072l0.072-0.216L66.744,65.114
				L66.744,65.114z"/>
			<polygon fill-rule="evenodd" clip-rule="evenodd" points="37.368,65.331 37.8,65.331 38.16,65.618 38.592,66.049 38.88,66.41 
				38.952,66.842 39.024,67.274 38.952,67.778 38.88,68.137 38.088,69.074 37.728,69.29 37.008,69.362 36.576,69.362 36,69.146 
				35.496,68.786 35.208,68.209 35.064,67.633 35.064,67.129 35.136,66.482 35.424,66.122 35.64,65.69 36.072,65.545 36.36,65.474 
				36.648,65.331 36.936,65.331 37.368,65.331 			"/>
			<path d="M37.368,65.258H37.8l0.072,0.072l0.36,0.287l0,0l0.36,0.36l0,0l0.288,0.36l0.072,0.071l0.072,0.433l0,0l0.072,0.359
				v0.072l-0.072,0.504l0,0l-0.072,0.359l-0.072,0.072l-0.72,0.937l0,0l-0.432,0.216l0,0l-0.648,0.072h-0.072l0,0V69.29l0.72-0.072
				l0.36-0.215l0.72-0.865l0.072-0.359l0,0l0.072-0.504l-0.072-0.432l0,0l-0.072-0.433l-0.288-0.36l-0.36-0.359l-0.36-0.288h-0.432
				h-0.36v-0.144H37.368z M37.008,69.434h-0.432l0,0l-0.648-0.217l0,0l-0.432-0.432l0,0l-0.36-0.504l0,0l-0.144-0.648l0,0v-0.504
				v-0.071l0.072-0.576l0,0l0.36-0.433l0.216-0.359l0,0L36,65.545h0.072l0.288-0.071l0.288-0.216l0,0h0.36v0.144h-0.36l-0.288,0.144
				l0,0l-0.288,0.072l-0.36,0.145l-0.216,0.359l0,0l-0.288,0.36l-0.072,0.647v0.504l0.144,0.576l0.288,0.504L36,69.074l0.576,0.216
				h0.432l0,0V69.434z"/>
			<polygon fill-rule="evenodd" clip-rule="evenodd" points="76.248,67.418 84.888,72.098 84.888,72.17 84.888,72.17 84.96,72.17 
				84.96,72.314 84.456,73.178 83.952,74.042 83.304,74.762 82.729,75.482 81.792,74.834 81.072,74.258 80.136,73.538 79.199,72.89 
				78.408,72.17 77.328,71.81 76.248,71.667 75.023,71.738 74.592,71.81 73.943,72.098 73.512,72.458 73.08,72.747 72.648,72.961 
				72.359,73.322 72.072,73.682 71.783,74.258 71.568,75.194 71.279,76.129 71.352,77.066 71.641,77.93 71.712,78.074 
				71.712,78.217 71.783,78.29 71.783,78.434 75.023,82.754 75.096,82.826 75.096,82.969 75.096,83.186 75.023,83.258 
				72.145,85.274 72.072,85.274 72.072,85.274 72.072,85.274 72,85.129 71.712,84.77 71.352,84.41 71.136,83.834 70.775,83.402 
				70.271,82.465 69.695,81.602 69.264,80.81 68.615,79.946 68.111,79.083 67.607,78.29 67.176,77.426 66.816,76.562 67.176,75.915 
				67.752,75.266 68.111,74.69 68.472,74.114 68.977,73.538 69.408,72.961 69.984,72.458 70.416,71.81 70.775,71.377 71.136,70.946 
				71.641,70.658 71.928,70.297 72.288,70.083 72.504,69.866 72.792,69.506 73.152,69.362 73.439,69.146 73.8,68.93 74.016,68.713 
				74.376,68.354 74.809,68.137 75.313,67.922 75.816,67.633 76.248,67.418 			"/>
			<polygon fill-rule="evenodd" clip-rule="evenodd" points="27.432,67.562 28.008,67.633 28.44,67.994 28.944,68.354 
				29.448,68.713 29.88,69.074 30.24,69.362 30.744,69.793 31.248,70.083 31.608,70.442 32.04,70.801 32.472,71.234 32.832,71.594 
				32.976,71.738 33.192,71.81 33.336,72.026 33.552,72.17 33.912,72.818 34.344,73.322 34.848,73.969 35.28,74.474 35.856,75.194 
				36.216,75.77 36.432,76.418 36.72,77.066 36.216,78.146 35.424,79.226 34.848,80.163 34.272,81.242 33.624,82.322 32.904,83.258 
				32.4,84.41 31.608,85.346 31.248,85.129 30.888,85.058 30.528,84.77 30.096,84.625 29.736,84.266 29.376,83.978 28.944,83.618 
				28.584,83.402 28.584,83.402 28.584,83.258 28.584,83.258 28.584,83.258 29.016,82.682 29.52,82.106 29.88,81.53 30.312,80.954 
				30.744,80.45 31.104,79.801 31.608,79.297 32.04,78.65 32.4,77.499 32.4,76.274 32.256,75.194 31.824,74.114 31.608,73.682 
				31.248,73.322 30.96,73.106 30.6,72.818 30.168,72.53 29.808,72.17 29.376,72.098 28.944,71.954 27.648,71.81 26.712,72.026 
				25.56,72.53 24.624,72.961 23.688,73.682 22.896,74.474 22.104,75.194 21.096,75.77 20.736,75.482 20.448,74.978 20.232,74.474 
				19.8,74.114 19.584,73.682 19.44,73.322 19.152,72.961 19.08,72.602 27.432,67.562 			"/>
			<polygon fill-rule="evenodd" clip-rule="evenodd" points="43.2,68.642 43.272,68.642 43.272,68.642 43.272,68.642 43.416,68.642 
				44.28,69.146 43.848,70.442 43.272,71.738 43.056,73.106 43.416,74.474 43.416,74.618 43.488,74.762 43.488,74.834 43.56,74.978 
				43.992,75.41 44.424,75.625 44.928,75.986 45.504,76.129 46.08,76.274 46.656,76.274 47.232,76.202 47.88,75.986 48.24,75.625 
				48.6,75.41 48.888,75.194 49.248,74.834 49.608,73.969 49.896,72.89 49.896,71.81 49.968,70.801 51.048,70.658 51.12,72.17 
				51.12,73.682 51.048,75.266 51.048,76.778 50.904,76.922 50.904,76.922 50.832,76.994 50.832,76.994 49.752,77.137 
				48.744,77.354 47.592,77.426 46.584,77.354 45.504,77.137 44.424,76.778 43.416,76.418 42.552,75.915 42.264,75.625 
				41.904,75.553 41.544,75.266 41.256,74.978 40.896,74.762 40.752,74.474 40.392,74.258 40.176,73.969 43.128,68.642 
				43.128,68.642 43.2,68.642 43.2,68.642 43.2,68.642 			"/>
			<polygon fill-rule="evenodd" clip-rule="evenodd" points="60.264,68.713 60.264,68.713 60.336,68.713 60.48,68.713 60.48,68.713 
				60.84,69.29 61.271,69.938 61.632,70.586 61.992,71.234 62.424,71.81 62.783,72.602 63.145,73.25 63.359,73.969 62.855,74.474 
				62.424,75.122 61.704,75.553 61.128,75.986 60.48,76.274 59.76,76.706 58.968,76.922 58.031,77.137 57.456,77.282 56.664,77.282 
				56.016,77.354 55.296,77.282 54.576,77.137 53.855,77.137 53.279,76.994 52.56,76.778 52.416,70.658 53.641,70.586 
				53.641,70.586 53.641,70.586 53.641,70.586 53.641,70.658 53.783,72.026 54,73.322 54.504,74.69 55.512,75.77 55.943,75.986 
				56.376,75.986 56.809,76.129 57.313,76.202 57.816,76.129 58.176,75.986 58.68,75.986 59.111,75.842 59.904,75.194 60.48,74.331 
				60.695,73.322 60.84,72.458 60.48,71.45 60.12,70.658 59.76,69.938 59.4,69.074 60.264,68.713 			"/>
			<polygon fill-rule="evenodd" clip-rule="evenodd" points="46.656,70.658 47.232,70.658 47.592,70.946 48.024,71.377 
				48.24,71.738 48.384,72.098 48.456,72.458 48.456,72.818 48.456,73.178 48.384,73.682 48.024,74.114 47.592,74.474 47.232,74.69 
				46.728,74.834 46.152,74.834 45.72,74.69 45.36,74.474 44.784,74.114 44.568,73.538 44.352,72.961 44.352,72.314 44.424,72.026 
				44.568,71.738 44.64,71.45 44.784,71.306 45.216,71.018 45.72,70.874 46.08,70.658 46.656,70.658 46.656,70.658 46.656,70.658 
				46.656,70.658 46.656,70.658 			"/>
			<path d="M46.656,70.586h0.576l0.072,0.071l0.36,0.288l0,0l0.36,0.36l0,0l0.288,0.432l0,0l0.144,0.36l0,0l0.072,0.287v0.072v0.721
				l0,0l-0.072,0.576l0,0l-0.432,0.359l0,0l-0.36,0.432l0,0l-0.36,0.217h-0.072l-0.504,0.144l0,0H46.44v-0.071h0.288l0.504-0.217
				l0.36-0.216l0.36-0.36l0,0l0.36-0.359l0.072-0.504v-0.721l-0.072-0.287l-0.144-0.433l-0.216-0.36l-0.36-0.359l-0.36-0.288h-0.576
				H46.44v-0.144H46.656z M46.44,74.906h-0.288l0,0l-0.432-0.144l0,0l-0.432-0.217l0,0l-0.504-0.432l0,0l-0.288-0.504l0,0
				l-0.216-0.648l0,0v-0.647l0,0l0.072-0.288l0,0l0.144-0.288l0.072-0.288l0.072-0.072l0.144-0.144l0,0l0.36-0.216l0,0l0.576-0.145
				l0.36-0.287l0,0h0.36v0.144h-0.288l-0.432,0.216l0,0l-0.504,0.145l-0.36,0.216l-0.144,0.144l-0.072,0.288l0,0l-0.144,0.36
				l-0.072,0.287v0.576l0.216,0.576l0,0l0.216,0.504l0.504,0.36l0.36,0.216l0.432,0.217h0.288V74.906z"/>
			<polygon fill-rule="evenodd" clip-rule="evenodd" points="57.672,70.658 57.96,70.658 58.32,70.801 58.607,70.874 58.824,71.018 
				59.184,71.45 59.4,71.954 59.472,72.458 59.615,72.961 59.4,73.465 59.184,73.969 58.968,74.258 58.607,74.474 58.176,74.69 
				57.888,74.762 57.6,74.762 57.313,74.762 57.096,74.69 56.664,74.618 56.447,74.474 56.16,74.402 55.8,74.042 55.512,73.61 
				55.368,73.178 55.296,72.747 55.368,72.53 55.368,72.17 55.512,72.098 55.512,71.81 56.376,70.874 57.672,70.658 			"/>
			<path d="M57.672,70.586L57.672,70.586h0.288h0.071l0.289,0.215l0.287,0.072l0,0l0.217,0.145h0.072l0.359,0.359l0,0l0.216,0.576
				l0,0l0.072,0.432l0,0l0.071,0.576l0,0l-0.144,0.576l0,0l-0.216,0.432l0,0l-0.216,0.289l-0.072,0.072l-0.36,0.215l-0.359,0.217
				l0,0l-0.36,0.072l0,0h-0.432V74.69h0.432l0.288-0.072l0.36-0.216l0.36-0.216l0.287-0.288l0.217-0.433l0.144-0.504l-0.072-0.504
				l0,0L59.4,71.954l-0.217-0.504l-0.432-0.359l-0.216-0.145l-0.288-0.072l0,0L57.96,70.73h-0.288l-0.216,0.071v-0.144
				L57.672,70.586z M57.456,74.834h-0.144l0,0l-0.289-0.072l-0.359-0.072l0,0l-0.217-0.145l-0.287-0.071h-0.072l-0.359-0.433l0,0
				l-0.217-0.359l0,0l-0.144-0.504l0,0l-0.144-0.432l0.071-0.072l0.072-0.217V72.17l0,0l0.144-0.072V71.81l0,0l0.792-0.937h0.072
				l1.08-0.216v0.144l-1.009,0.145l-0.863,0.864v0.36l0,0l-0.145,0.071v0.288l0,0l-0.071,0.217l0.071,0.432l0.145,0.432l0.216,0.359
				l0.36,0.361l0.287,0.071h0.072l0.217,0.144l0.359,0.072l0,0l0.217,0.072h0.144V74.834z"/>
			<polygon fill-rule="evenodd" clip-rule="evenodd" points="64.512,77.426 65.592,77.499 70.416,86.209 69.984,86.426 
				69.624,86.642 69.264,86.858 68.688,87.074 68.256,87.362 67.824,87.578 67.32,87.721 66.816,87.793 66.456,87.074 66.24,86.209 
				65.809,85.346 65.447,84.625 65.232,83.978 65.088,83.618 64.8,83.186 64.656,82.682 64.296,82.25 63.792,81.89 63.288,81.458 
				62.855,81.17 62.424,80.954 61.775,80.738 61.271,80.594 60.624,80.594 60.12,80.594 59.615,80.81 59.111,80.954 58.68,81.098 
				58.32,81.314 57.816,81.747 57.527,82.034 57.168,82.394 56.664,82.969 56.376,83.762 56.16,84.553 56.016,85.346 56.088,86.137 
				56.16,86.786 56.16,87.434 56.304,88.083 56.304,88.801 56.447,89.306 56.52,90.098 56.664,90.674 56.304,90.818 55.8,90.818 
				55.296,91.034 54.863,91.034 54.432,91.106 53.855,91.106 53.424,91.106 52.992,91.106 52.92,91.106 52.92,91.034 52.776,91.034 
				52.776,91.034 52.416,81.17 52.992,80.738 53.641,80.306 54.432,79.946 55.008,79.658 55.8,79.37 56.52,79.083 57.313,78.793 
				58.031,78.578 58.968,78.29 59.76,78.217 60.48,78.074 61.344,77.93 62.064,77.786 62.928,77.642 63.792,77.499 64.512,77.426 
							"/>
			<polygon fill-rule="evenodd" clip-rule="evenodd" points="38.304,77.499 39.024,77.499 39.672,77.499 40.392,77.499 
				41.184,77.642 41.76,77.786 42.48,77.858 43.128,77.93 43.848,78.146 44.784,78.29 45.72,78.578 46.728,78.866 47.592,79.297 
				48.456,79.658 49.392,80.018 50.256,80.45 51.048,80.81 50.832,90.818 50.472,91.034 49.968,91.106 49.536,91.106 49.176,91.106 
				48.6,91.034 48.096,90.818 47.592,90.818 47.232,90.747 47.088,90.747 47.088,90.674 47.016,90.674 47.016,90.674 47.088,89.594 
				47.304,88.514 47.448,87.29 47.592,86.137 47.592,84.986 47.376,83.906 46.944,82.826 46.224,82.106 45.864,81.747 
				45.504,81.458 45,81.17 44.568,80.954 44.208,80.881 43.632,80.738 43.128,80.594 42.696,80.594 42.048,80.738 41.544,80.881 
				40.968,81.098 40.464,81.314 40.032,81.747 39.6,82.106 39.24,82.465 38.88,82.969 38.304,84.194 37.8,85.418 37.368,86.642 
				36.72,87.793 36.72,87.793 36.648,87.793 36.648,87.793 36.576,87.938 33.624,86.57 33.552,86.499 33.552,86.426 33.552,86.282 
				33.408,86.282 33.768,85.49 34.056,84.986 34.488,84.41 34.776,83.762 35.064,83.402 35.208,82.969 35.424,82.682 35.568,82.322 
				35.928,81.747 36.216,80.954 36.576,80.45 36.792,79.801 37.152,79.226 37.512,78.578 37.872,78.074 38.232,77.499 
				38.232,77.499 38.304,77.499 38.304,77.499 38.304,77.499 			"/>
			<polygon fill-rule="evenodd" clip-rule="evenodd" fill="#FFFFFF" points="28.368,91.465 28.368,91.465 28.44,91.465 
				28.44,91.465 28.44,91.465 28.728,91.61 28.944,91.826 29.088,92.114 29.232,92.402 29.232,93.049 29.016,93.698 28.728,94.129 
				28.44,94.562 28.08,94.778 27.576,94.994 27.144,95.066 26.712,94.85 26.712,94.778 26.568,94.633 26.352,94.633 26.28,94.633 
				28.296,91.465 28.296,91.465 28.368,91.465 28.368,91.465 28.368,91.465 			"/>
			<polygon fill-rule="evenodd" clip-rule="evenodd" stroke="#63908F" stroke-width="0.216" points="48.024,52.226 48.096,52.802 
				48.096,53.234 48.168,53.881 48.384,54.458 48.6,54.818 48.816,55.034 49.176,55.465 49.536,55.754 49.752,56.042 50.112,56.186 
				50.544,56.402 51.048,56.545 51.408,56.618 51.912,56.618 52.344,56.618 52.776,56.545 53.136,56.331 53.641,56.186 54,55.969 
				54.216,55.682 54.863,55.034 55.296,54.17 55.656,53.234 55.656,52.298 55.656,52.226 55.729,52.082 55.943,52.082 55.943,52.01 
				91.512,51.866 91.439,51.506 91.512,50.93 91.512,50.714 91.296,50.498 82.225,50.498 61.416,50.57 54.432,50.57 54.216,51.29 
				54.432,51.866 54.432,52.442 54.432,53.162 54.216,53.522 54.145,53.954 54,54.314 53.712,54.674 53.352,55.034 52.92,55.394 
				52.272,55.465 51.552,55.465 51.048,55.465 50.544,55.25 50.04,54.961 49.68,54.602 49.248,53.667 49.176,52.73 49.176,51.65 
				48.96,50.57 12.384,50.57 12.6,52.082 12.6,52.082 48.024,52.226 			"/>
		</g>
		<polygon fill-rule="evenodd" clip-rule="evenodd" stroke="#485E88" stroke-width="0.216" points="9.072,72.818 10.008,73.106 
			10.296,73.754 10.008,74.69 9.792,74.834 9.432,74.906 9.216,74.906 8.856,74.834 8.568,74.545 8.424,74.402 8.28,74.114 
			8.208,73.754 8.28,73.465 8.424,73.322 8.496,73.106 8.856,72.961 8.856,72.961 8.928,72.818 9,72.818 9.072,72.818 		"/>
		<polygon fill-rule="evenodd" clip-rule="evenodd" stroke="#485E88" stroke-width="0.216" points="96.552,71.881 96.84,71.881 
			97.199,72.026 97.416,72.098 97.632,72.458 97.704,72.818 97.704,73.178 97.632,73.465 97.561,73.754 97.199,73.898 
			96.912,73.898 96.624,73.898 96.336,73.898 96.12,73.754 95.832,73.538 95.688,73.322 95.544,73.034 95.688,72.747 95.76,72.458 
			96.12,72.242 96.336,72.026 96.552,71.881 		"/>
		<path d="M102.456,69.434v-1.368l0.937,0.216v-0.072l-0.937-0.504v-0.432l1.44,0.792l-0.576,2.735l-0.36-0.071l0.288-1.08
			L102.456,69.434L102.456,69.434z M102.456,64.178v-1.297l2.231-0.144v-0.071l-2.231-0.504v-0.505l2.448,0.576l0.216-1.008
			l0.36,0.071l-0.648,2.809L102.456,64.178L102.456,64.178z M102.456,56.978v-0.433l3.024,0.072v-1.08h0.359l-0.072,2.592h-0.359
			l0.072-1.08L102.456,56.978L102.456,56.978z M102.456,52.298V50.93l3.096,0.072v-1.08h0.36l-0.072,3.456h-0.359l0.071-1.007
			L102.456,52.298L102.456,52.298z M102.456,46.178v-1.44c0.144,0,0.216,0,0.36,0c0.071,0,0.144,0,0.215-0.072
			c0.505-0.072,0.865-0.216,1.08-0.432c0.217-0.216,0.36-0.504,0.36-0.792c0.072-0.288,0-0.648-0.071-1.08
			c0-0.144-0.072-0.288-0.072-0.576c-0.072-0.216-0.145-0.432-0.145-0.648l-1.728,0.36v-1.44l1.44-0.288l-0.217-1.008l0.36-0.072
			l0.72,3.888c0.145,0.576,0.145,1.08,0.145,1.584c-0.072,0.504-0.145,0.936-0.433,1.368c-0.216,0.36-0.575,0.576-1.079,0.648
			c-0.072,0.072-0.217,0.072-0.289,0.072C102.888,46.25,102.672,46.25,102.456,46.178z M102.456,40.058v1.44l-2.017,0.36
			c0.072,0.216,0.072,0.432,0.072,0.504c0.072,0.144,0.072,0.288,0.145,0.432c0.072,0.504,0.144,0.864,0.287,1.152
			c0.145,0.288,0.36,0.504,0.648,0.648s0.576,0.216,0.864,0.144v1.44c-0.144,0-0.36-0.072-0.504-0.216
			c-0.36-0.216-0.648-0.576-0.792-0.936c-0.217-0.36-0.432-0.792-0.504-1.224h-0.145c0,0.792-0.144,1.368-0.359,1.872
			c-0.289,0.432-0.576,0.648-0.864,0.792c-0.36,0.144-0.864,0.288-1.656,0.504c-0.864,0.216-1.224,0.576-1.151,1.08
			c0.071,0.216,0.144,0.432,0.359,0.648L96.48,48.77c-0.289-0.36-0.504-0.792-0.576-1.152c-0.072-0.504,0-0.936,0.287-1.368
			c0.36-0.36,0.793-0.648,1.44-0.864c0.072,0,0.288-0.072,0.647-0.144c0.289-0.072,0.576-0.144,0.793-0.216
			c0.216-0.072,0.432-0.216,0.647-0.36c0.144-0.072,0.288-0.288,0.433-0.504c0.072-0.288,0.144-0.504,0.144-0.792
			c0-0.288-0.071-0.648-0.144-1.008l-0.072-0.432l-4.465,0.864l0.217,1.08l-0.288,0.072v-2.52L102.456,40.058L102.456,40.058z
			 M102.456,50.93v1.368l-3.528-0.072c-0.432,0-0.863,0.072-1.152,0.216c-0.359,0.144-0.647,0.36-0.863,0.648
			c-0.145,0.216-0.288,0.577-0.288,1.008c0,0.863,0.288,1.439,0.792,1.8s1.152,0.576,1.943,0.576l3.097,0.071v0.433l-3.168-0.072
			c-0.647,0-1.224-0.144-1.728-0.36c-0.433-0.215-0.793-0.576-1.009-1.08c-0.288-0.432-0.36-1.08-0.36-1.728
			c0-0.504,0.145-1.008,0.36-1.44c0.216-0.504,0.504-0.792,0.864-1.08c0.432-0.216,0.863-0.36,1.439-0.36L102.456,50.93
			L102.456,50.93z M102.456,61.658v0.505l-6.12-1.441L96.12,61.73l-0.36-0.072l0.576-2.448l0.359,0.072l-0.287,1.008L102.456,61.658
			L102.456,61.658z M102.456,62.881v1.297l-4.824,0.287l4.824,2.809v0.432l-6.912-4.031v-0.433L102.456,62.881L102.456,62.881z
			 M102.456,68.066l-6.912-1.584v1.368l6.912,1.584V68.066L102.456,68.066z M95.544,37.754v-1.08c0.504-0.072,1.151-0.216,1.8-0.504
			c0.288-0.144,0.576-0.288,0.721-0.36c1.008-0.432,1.871-0.936,2.447-1.368c0.36-0.36,0.648-0.72,0.792-1.08
			c0.144-0.432,0.216-0.864,0.072-1.296c-0.072-0.144-0.072-0.288-0.144-0.432c-0.145-0.288-0.36-0.576-0.648-0.792
			c-0.216-0.216-0.576-0.36-0.864-0.432c-0.504-0.144-1.008-0.072-1.655,0.144c-0.576,0.144-1.225,0.432-2.017,0.792
			c-0.144,0-0.288,0.072-0.504,0.216l0,0v-1.728c0.647-0.36,1.44-0.504,2.16-0.504c0.792,0,1.584,0.144,2.304,0.504
			c0.648,0.36,1.152,0.864,1.512,1.584c0.072,0.216,0.145,0.36,0.145,0.576c0.216,0.504,0.216,1.08,0.145,1.584
			c-0.072,0.576-0.289,1.08-0.576,1.512c-0.289,0.504-0.648,0.936-1.08,1.296c-0.433,0.36-0.864,0.648-1.369,0.864
			c-0.575,0.288-1.151,0.432-1.728,0.504C96.552,37.826,96.048,37.826,95.544,37.754L95.544,37.754z M95.544,26.234v-1.728
			l1.08-0.72l-0.647-1.008l0.287-0.144l2.088,3.24l-0.287,0.144l-0.648-1.008L95.544,26.234z M95.544,24.506v1.728l-4.968,3.168
			v-1.656L95.544,24.506L95.544,24.506z M95.544,29.834v1.728c-0.433,0.216-0.792,0.432-1.224,0.648
			c-0.36,0.216-0.721,0.504-1.008,0.864c-0.289,0.288-0.504,0.648-0.576,1.008c-0.072,0.432-0.072,0.792,0.144,1.224
			c0.433,0.936,1.008,1.368,1.8,1.44c0.288,0,0.576,0,0.864-0.072v1.08c-0.072,0-0.216,0-0.288,0c-0.576-0.144-1.08-0.36-1.512-0.72
			c-0.504-0.36-0.864-0.792-1.152-1.368c-0.359-0.792-0.432-1.512-0.288-2.304c0.216-0.72,0.505-1.44,1.08-2.016
			c0.576-0.648,1.224-1.08,1.944-1.44C95.4,29.834,95.472,29.834,95.544,29.834L95.544,29.834z M95.544,41.426v2.52h-0.072
			l-0.72-3.528l0.359-0.072l0.217,1.08H95.544L95.544,41.426z M95.544,63.242v0.433l-0.216-0.072l0.072-0.36H95.544L95.544,63.242z
			 M95.544,66.482v1.368l-0.792-0.145l-0.288,1.08l-0.36-0.072l0.793-3.455l0.359,0.072l-0.216,1.008L95.544,66.482L95.544,66.482z
			 M90.576,30.914v-0.432l0.216,0.288L90.576,30.914L90.576,30.914z M90.576,23.93v-2.088c0.504-0.504,0.863-0.936,1.152-1.296
			c0.287-0.432,0.432-0.936,0.432-1.368c0-0.432-0.145-0.864-0.36-1.224c-0.288-0.432-0.575-0.792-1.008-1.224l-0.216-0.216V16.01
			l0.792,0.792c0.504,0.504,0.864,1.08,1.079,1.656c0.289,0.504,0.361,1.08,0.361,1.656c0,0.576-0.145,1.152-0.433,1.656
			c-0.216,0.576-0.647,1.08-1.151,1.584C91.008,23.57,90.792,23.714,90.576,23.93z M90.576,16.01v0.504l-0.145-0.216l-5.976,5.76
			v-2.016l4.896-4.824l-0.72-0.72l0.288-0.216L90.576,16.01L90.576,16.01z M90.576,21.842l-0.072,0.072l-0.432,0.36l-0.432,0.504
			c-0.361,0.288-0.721,0.576-1.009,0.792s-0.576,0.432-0.937,0.504c-0.359,0.144-0.719,0.144-1.08,0.072
			c-0.287,0-0.504-0.072-0.719-0.216c-0.217-0.144-0.433-0.288-0.576-0.432c-0.217-0.144-0.433-0.36-0.648-0.576
			c-0.072-0.072-0.145-0.144-0.216-0.216v0.504l0.144,0.216c0.721,0.648,1.368,1.152,2.016,1.296c0.793,0.288,1.584,0.216,2.449,0
			c0.576-0.216,1.08-0.504,1.512-0.792V21.842L90.576,21.842z M90.576,27.746v1.656l-0.504,0.36l0.504,0.72v0.432l-0.145,0.072
			l-2.088-3.24l0.288-0.216l0.647,1.008L90.576,27.746L90.576,27.746z M84.456,13.706v-0.72l0.937-1.296l-0.937-0.648l0.216-0.288
			l2.088,1.512l-0.216,0.288l-0.864-0.648L84.456,13.706z M84.456,12.986v0.72l-2.304,3.24c-0.36,0.576-0.793,0.936-1.225,1.224
			c-0.504,0.288-1.008,0.36-1.512,0.288c-0.504-0.072-1.08-0.36-1.656-0.72c-0.288-0.216-0.576-0.504-0.792-0.792v-3.24l3.744-5.328
			l-0.937-0.576l0.217-0.288l2.951,2.016l-0.215,0.288L81.792,9.17l-3.744,5.472c-0.288,0.36-0.433,0.72-0.504,1.08
			c-0.072,0.36-0.072,0.648,0.071,1.008c0.145,0.288,0.433,0.576,0.793,0.864c0.647,0.432,1.296,0.576,1.871,0.36
			c0.576-0.216,1.152-0.648,1.584-1.296L84.456,12.986L84.456,12.986z M84.456,20.042v2.016l-0.36,0.288
			c0.145,0.144,0.288,0.216,0.36,0.288v0.072v0.504l-2.304-2.376l0.216-0.288l0.72,0.792L84.456,20.042L84.456,20.042z M76.968,7.73
			l0.576-1.512L76.968,5.93V7.73z M76.968,5.93v1.8l-0.432,1.008l-0.288-0.144c0.216-0.72,0.288-1.296,0.145-1.872
			c-0.072-0.36-0.217-0.576-0.505-0.792c-0.216-0.144-0.575-0.36-0.936-0.504l-0.216-0.072l-3.528,7.92l1.08,0.504l-0.144,0.288
			l-3.457-1.512l0.145-0.36l1.08,0.504l3.527-7.92l-0.287-0.144c-0.36-0.216-0.721-0.288-1.008-0.36c-0.289,0-0.504,0-0.793,0.144
			c-0.287,0.216-0.432,0.36-0.647,0.576c-0.144,0.144-0.433,0.432-0.72,0.864l-0.289-0.144l1.225-2.448L76.968,5.93L76.968,5.93z
			 M76.968,13.706l-0.071,0.216c-0.36,0.432-0.504,0.864-0.504,1.368c-0.072,0.432,0.071,0.864,0.287,1.296
			c0.072,0.144,0.217,0.288,0.288,0.36V13.706L76.968,13.706z M41.544,7.658V7.226l1.224-0.216l-1.224-2.088V2.33l4.464,7.416
			l0.936-0.216l0.072,0.36l-3.456,0.792l-0.072-0.36l1.08-0.216L42.984,7.37L41.544,7.658L41.544,7.658z M48.096,9.818L47.808,9.89
			l-0.144-2.52h0.288c0.072,0.288,0.216,0.576,0.36,0.72c0.144,0.216,0.288,0.432,0.504,0.576c0.144,0.216,0.36,0.36,0.648,0.504
			c0.36,0.216,0.792,0.288,1.296,0.288c0.36,0,0.648-0.144,0.936-0.288c0.36-0.144,0.576-0.288,0.792-0.576
			c0.216-0.216,0.288-0.432,0.432-0.72c0-0.216,0.072-0.504,0.072-0.792c-0.072-0.144-0.072-0.36-0.072-0.504
			c-0.144-0.216-0.288-0.432-0.504-0.576c-0.288-0.144-0.504-0.216-0.72-0.288c-0.288-0.072-0.576-0.144-1.008-0.216
			c-0.432-0.144-0.648-0.144-0.792-0.216c-0.432-0.072-0.792-0.216-1.152-0.432c-0.36-0.144-0.648-0.36-0.864-0.648
			c-0.288-0.288-0.432-0.648-0.504-1.08c0-0.144,0-0.216-0.072-0.288c0-0.504,0.072-0.936,0.288-1.368
			c0.216-0.432,0.504-0.792,0.936-1.008c0.36-0.288,0.864-0.432,1.368-0.432c0.576-0.072,1.08,0,1.584,0.288
			c0.216,0.072,0.36,0.144,0.36,0.144s0.072,0,0.072-0.072l0.072-0.072c0.072-0.072,0.144-0.144,0.216-0.216l0.288-0.072l0.144,2.16
			h-0.216c-0.216-0.432-0.432-0.792-0.72-1.08C51.48,0.818,51.12,0.602,50.76,0.458c-0.288-0.072-0.648-0.144-0.936-0.072
			c-0.576,0-1.08,0.216-1.44,0.648c-0.288,0.288-0.432,0.72-0.432,1.152c0,0.216,0.072,0.36,0.144,0.576
			c0.144,0.144,0.36,0.288,0.576,0.432s0.432,0.216,0.72,0.288c0.216,0.072,0.504,0.144,0.792,0.216
			c0.36,0.072,0.576,0.072,0.792,0.144c0.792,0.144,1.368,0.36,1.8,0.792c0.432,0.36,0.72,0.864,0.792,1.584
			c0,0.072,0,0.072,0,0.144c0,0,0,0,0,0.072c0,0.36,0,0.792-0.145,1.152c-0.072,0.432-0.288,0.792-0.504,1.08
			c-0.144,0.36-0.504,0.576-0.864,0.792c-0.36,0.216-0.864,0.288-1.368,0.36c-0.288,0-0.648,0-1.008-0.072
			c-0.288-0.072-0.576-0.144-0.864-0.288c-0.144-0.072-0.216-0.144-0.288-0.144c-0.072,0-0.072,0.072-0.144,0.072
			c0,0.072-0.072,0.072-0.144,0.216C48.168,9.674,48.096,9.746,48.096,9.818L48.096,9.818z M60.768,10.394l-0.287-0.072l0.575-2.376
			h0.288c0,0.36,0.072,0.648,0.145,0.864c0.072,0.216,0.144,0.432,0.287,0.648c0.145,0.288,0.289,0.504,0.504,0.72
			c0.289,0.288,0.648,0.504,1.152,0.576c0.288,0.072,0.648,0.144,1.008,0.072c0.289-0.072,0.648-0.144,0.864-0.36
			c0.288-0.144,0.433-0.288,0.648-0.504c0.144-0.288,0.288-0.504,0.36-0.792c0-0.144,0-0.36,0-0.504
			c-0.072-0.288-0.145-0.504-0.36-0.648c-0.144-0.216-0.36-0.432-0.576-0.576c-0.216-0.072-0.504-0.288-0.864-0.504
			c-0.359-0.216-0.576-0.288-0.72-0.36c-0.36-0.216-0.647-0.504-0.937-0.72c-0.287-0.288-0.504-0.648-0.647-0.936
			c-0.144-0.36-0.216-0.792-0.144-1.152c0-0.144,0-0.288,0-0.288c0.144-0.504,0.359-0.936,0.647-1.224
			c0.36-0.36,0.72-0.648,1.224-0.72c0.433-0.144,0.937-0.144,1.44-0.072c0.504,0.144,1.008,0.432,1.44,0.72
			c0.144,0.216,0.215,0.288,0.287,0.288h0.072c0,0,0.072-0.072,0.145-0.072c0.072-0.072,0.144-0.144,0.216-0.144h0.288L67.32,4.346
			h-0.217C67.031,3.842,66.96,3.41,66.744,3.05c-0.145-0.36-0.36-0.648-0.721-0.864c-0.215-0.216-0.504-0.288-0.863-0.36
			c-0.504-0.144-1.008-0.072-1.512,0.216C63.216,2.258,63,2.618,62.855,3.05c0,0.144,0,0.36,0,0.576
			c0.072,0.144,0.217,0.36,0.36,0.576c0.216,0.144,0.433,0.36,0.647,0.432c0.217,0.144,0.433,0.288,0.721,0.432
			c0.288,0.216,0.504,0.288,0.648,0.432c0.72,0.36,1.224,0.792,1.584,1.224c0.287,0.504,0.432,1.152,0.287,1.872c0,0,0,0,0,0.072
			c0,0,0,0,0,0.072c-0.144,0.36-0.287,0.72-0.504,1.08c-0.216,0.36-0.504,0.648-0.791,0.864c-0.361,0.288-0.721,0.432-1.152,0.504
			c-0.432,0.072-0.864,0-1.368-0.072c-0.36-0.072-0.647-0.216-0.937-0.36c-0.287-0.144-0.576-0.36-0.791-0.576
			c-0.072-0.072-0.145-0.144-0.217-0.144s-0.072,0-0.145,0c-0.071,0-0.071,0.072-0.215,0.144
			C60.912,10.25,60.84,10.322,60.768,10.394z M41.544,2.33v2.592l-0.792-1.368l-0.36,3.96l1.152-0.288v0.432L40.32,7.946
			l-0.288,3.168l1.152-0.216l0.072,0.36l-2.664,0.576l-0.072-0.36l1.08-0.216l1.008-9.792l0.36-0.072L41.544,2.33L41.544,2.33z
			 M29.88,16.226V14.93l0.36,0.648l1.08-0.648l0.144,0.288L29.88,16.226L29.88,16.226z M29.88,5.93V5.498l5.04-2.304l1.152,2.448
			l-0.288,0.144c-0.36-0.648-0.792-1.08-1.296-1.368c-0.288-0.144-0.576-0.216-0.864-0.144c-0.288,0.072-0.648,0.216-1.08,0.36
			L32.4,4.706l3.528,7.992l1.008-0.504l0.144,0.36l-3.384,1.512l-0.144-0.36l1.08-0.432l-3.6-7.992l-0.288,0.144
			C30.384,5.57,30.096,5.786,29.88,5.93z M29.88,5.498V5.93l0,0c-0.216,0.216-0.36,0.432-0.432,0.72
			c-0.072,0.288-0.072,0.576-0.072,0.864c0.072,0.216,0.072,0.576,0.216,1.08l-0.288,0.144l-1.008-2.592L29.88,5.498L29.88,5.498z
			 M29.88,14.93l-4.248-6.768l1.008-0.648l-0.144-0.288l-1.728,1.08V9.53l4.248,6.768l-1.008,0.648l0.216,0.288l1.656-1.008V14.93
			L29.88,14.93z M24.768,20.258v-0.432c0.072-0.072,0.144-0.144,0.216-0.144c0.216-0.216,0.432-0.504,0.648-0.792
			c0.144-0.288,0.216-0.576,0.288-0.936c0-0.288,0-0.504-0.072-0.792c-0.144-0.288-0.216-0.504-0.432-0.72
			c-0.072-0.144-0.216-0.288-0.432-0.36c-0.072-0.072-0.144-0.072-0.216-0.072v-1.152c0.216,0.144,0.432,0.288,0.648,0.504
			c0,0.072,0.072,0.072,0.072,0.072s0,0.072,0.072,0.072c0.216,0.288,0.432,0.648,0.576,1.08c0.144,0.36,0.216,0.792,0.216,1.152
			c0,0.432-0.144,0.792-0.288,1.152c-0.216,0.432-0.504,0.792-0.936,1.08C25.056,20.042,24.912,20.186,24.768,20.258z M24.768,8.306
			V9.53l-0.36-0.576L23.4,9.53l-0.216-0.288L24.768,8.306L24.768,8.306z M24.768,14.858v1.152c-0.144-0.072-0.288-0.072-0.504-0.072
			c-0.288,0-0.504,0.072-0.72,0.144c-0.288,0.072-0.576,0.216-0.936,0.432c-0.432,0.144-0.648,0.288-0.72,0.288
			c-0.432,0.144-0.864,0.288-1.224,0.36c-0.288,0.072-0.504,0.072-0.792,0v-1.368c0.144,0,0.288-0.072,0.432-0.144
			c0.288-0.072,0.504-0.216,0.864-0.36c0.288-0.144,0.504-0.216,0.648-0.288c0.72-0.36,1.368-0.504,1.944-0.432
			C24.12,14.57,24.48,14.642,24.768,14.858L24.768,14.858z M24.768,19.826v0.432c-0.144,0.072-0.288,0.216-0.432,0.288
			c-0.36,0.144-0.648,0.216-0.936,0.216c-0.144,0.072-0.216,0.072-0.288,0.144c-0.072,0-0.072,0.072-0.072,0.072
			c0,0.072,0,0.144,0,0.288c0,0.072,0,0.216,0,0.288l-0.216,0.144l-1.584-1.872l0.216-0.144c0.288,0.144,0.504,0.288,0.792,0.36
			c0.216,0.072,0.432,0.144,0.72,0.144c0.216,0.072,0.504,0.072,0.792,0C24.12,20.186,24.48,20.042,24.768,19.826L24.768,19.826z
			 M19.872,23.93v-1.584l0.072,0.072c0.72,0.504,1.224,0.576,1.584,0.144c0.072-0.144,0.216-0.36,0.288-0.648l0.288,0.216
			c-0.144,0.432-0.36,0.864-0.576,1.152c-0.288,0.432-0.72,0.576-1.224,0.648C20.16,23.93,20.016,23.93,19.872,23.93L19.872,23.93z
			 M19.872,12.338v-0.432c0.072,0,0.216-0.072,0.288-0.072c0.216-0.072,0.36-0.072,0.36-0.072c0.072-0.072,0.072-0.072,0.072-0.072
			c0-0.072,0-0.072,0-0.216c0-0.072,0-0.144,0-0.216l0.288-0.216l1.368,1.656l-0.216,0.144c-0.432-0.216-0.864-0.432-1.224-0.504
			C20.52,12.266,20.232,12.266,19.872,12.338z M19.872,11.906v0.432c-0.072,0-0.144,0.072-0.144,0.072
			c-0.36,0.072-0.648,0.216-0.864,0.432c-0.432,0.36-0.72,0.864-0.792,1.368c0,0.504,0.072,0.864,0.36,1.224
			c0.144,0.144,0.288,0.288,0.504,0.36c0.144,0.072,0.432,0.072,0.648,0.072c0.144,0,0.216-0.072,0.288-0.072v1.368
			c-0.072,0-0.216,0-0.36-0.072c-0.36-0.072-0.72-0.288-1.008-0.576c-0.072-0.072-0.144-0.144-0.216-0.216
			c-0.288-0.36-0.504-0.792-0.576-1.224c-0.072-0.504,0-0.936,0.144-1.368c0.216-0.432,0.432-0.864,0.864-1.152
			C19.08,12.266,19.44,12.05,19.872,11.906L19.872,11.906z M19.872,22.346v1.584c-0.36-0.072-0.72-0.288-1.152-0.504
			c-0.072-0.072-0.216-0.216-0.504-0.432c-0.288-0.144-0.504-0.36-0.72-0.432c-0.216-0.144-0.432-0.216-0.648-0.288
			c-0.216,0-0.432,0-0.72,0.072c-0.216,0.072-0.504,0.144-0.648,0.36c-0.216,0.144-0.432,0.36-0.72,0.72l-0.288,0.288l3.6,2.88
			l0.648-0.792l0.288,0.216l-2.232,2.808l-0.288-0.216l0.648-0.936l-4.392-3.528v-1.8l1.44,1.152c0.144-0.144,0.288-0.288,0.36-0.36
			c0.072-0.144,0.216-0.216,0.288-0.36c0.288-0.36,0.504-0.72,0.648-1.008s0.144-0.576,0.072-0.936
			c-0.072-0.288-0.288-0.648-0.648-0.936c-0.072-0.072-0.144-0.144-0.216-0.144c-0.36-0.36-0.72-0.504-1.008-0.576
			c-0.36,0-0.648,0.072-0.864,0.216l-0.072,0.072v-0.504c0.144-0.144,0.216-0.216,0.36-0.36c0.432-0.288,0.864-0.432,1.296-0.504
			c0.432-0.072,0.864,0.072,1.224,0.36c0.072,0.072,0.144,0.144,0.216,0.216c0.36,0.36,0.504,0.72,0.576,1.08
			c0,0.432-0.072,0.792-0.216,1.224c-0.144,0.36-0.36,0.792-0.648,1.152l0.144,0.072c0.504-0.504,1.08-0.792,1.584-0.864
			c0.576-0.072,0.936,0,1.224,0.144S19.224,21.914,19.872,22.346L19.872,22.346z M12.744,36.242l3.24-6.12l-2.304-1.44l-0.144,0.288
			c0.432,0.432,0.792,0.72,1.008,1.08c0.144,0.288,0.288,0.648,0.288,1.008c-0.072,0.36-0.144,0.792-0.432,1.224l-0.936,1.8
			l-0.72-0.432v1.656v0.072v0.072V36.242z M9.288,67.778l-1.44,0.359V66.77l1.008-0.288c0.432-0.144,0.792-0.288,1.08-0.504
			s0.504-0.504,0.576-0.864c0.144-0.288,0.144-0.72,0-1.152c-0.216-0.72-0.648-1.224-1.224-1.512
			c-0.432-0.144-0.864-0.216-1.44-0.144v-0.433c0.432,0,0.792,0,1.08,0.072c0.576,0.072,1.008,0.288,1.368,0.721
			c0.288,0.359,0.576,0.936,0.792,1.584c0.144,0.575,0.144,1.08,0.072,1.584c-0.072,0.432-0.288,0.863-0.576,1.224
			S9.864,67.633,9.288,67.778L9.288,67.778z M12.744,18.962v0.504c-0.216,0.144-0.432,0.36-0.72,0.72
			c-0.072,0.072-0.216,0.216-0.36,0.432c-0.144,0.144-0.288,0.36-0.36,0.504l1.44,1.224v1.8l-2.376-1.944L9.72,23.066L9.432,22.85
			l2.52-3.096C12.24,19.466,12.456,19.178,12.744,18.962L12.744,18.962z M12.744,33.65v1.656l-4.896-2.592v-1.656l1.44,0.792
			l0.144-0.216c0.144-0.288,0.288-0.648,0.36-0.864c0-0.288,0-0.504-0.144-0.72c-0.144-0.216-0.36-0.432-0.72-0.648l0.144-0.288
			l3.168,1.656l-0.144,0.288c-0.504-0.216-0.864-0.288-1.08-0.288c-0.288,0-0.504,0.144-0.72,0.36
			c-0.216,0.144-0.432,0.504-0.648,0.936L12.744,33.65L12.744,33.65z M12.744,35.45v0.792L12.6,36.458l-0.288-0.216L12.744,35.45
			L12.744,35.45z M7.848,57.986v-0.433h1.296v-1.079h0.36v2.52l-0.36,0.072v-1.08H7.848L7.848,57.986z M7.848,53.234v-1.368h1.8
			v0.36L7.848,53.234L7.848,53.234z M7.848,48.338v-1.44l1.729,0.216L9.72,45.89l0.432,0.072l-0.576,3.816l-0.36-0.072l0.144-1.152
			L7.848,48.338L7.848,48.338z M7.848,41.498V40.13l1.44-0.072l-1.44-1.008v-0.432l3.6,2.448l-0.144,0.288L7.848,41.498
			L7.848,41.498z M7.848,27.026v-1.008l1.729,0.936L9.432,27.17C8.784,26.954,8.28,26.882,7.848,27.026z M7.848,68.137l-5.04,1.369
			l0.288,1.08l-0.288,0.071l-0.936-3.456l0.36-0.072l0.288,1.08l5.328-1.439V68.137L7.848,68.137z M7.848,62.306
			c-0.216,0.071-0.36,0.071-0.576,0.144l-5.904,1.584l0.288,1.08l-0.36,0.072l-0.648-2.52l0.36-0.072l0.288,1.008L7.2,62.018
			c0.216-0.072,0.432-0.072,0.648-0.145V62.306L7.848,62.306z M7.848,26.018v1.008c0,0.072-0.072,0.072-0.072,0.072
			c-0.432,0.216-0.792,0.648-1.152,1.296L5.76,29.978l2.088,1.08v1.656l-2.736-1.44L4.608,32.21L4.32,31.994l3.24-6.12L7.848,26.018
			L7.848,26.018z M7.848,38.618v0.432L3.24,35.882l-0.36,1.224l-0.36-0.072l0.792-2.592L3.6,34.514l-0.288,1.008L7.848,38.618
			L7.848,38.618z M7.848,40.13v1.368l-6.336,0.288l-0.288,1.008l-0.288-0.072l1.008-3.528l0.288,0.144l-0.288,1.08L7.848,40.13
			L7.848,40.13z M7.848,46.898v1.44L0.792,47.33l-0.216,1.152H0.288l0.504-3.816h0.36L0.936,45.89L7.848,46.898L7.848,46.898z
			 M7.848,51.866v1.368l-7.2,4.464l7.2-0.145v0.433l-7.416,0.144v1.008H0.144l-0.072-2.735l6.624-4.032L0.36,52.442v1.008H0v-2.52
			h0.288l0.072,1.08L7.848,51.866z"/>
		<path d="M88.416,92.69v-0.504c0.072-0.072,0.072-0.145,0.145-0.217c0.144-0.287,0.215-0.647,0.287-0.936
			c0-0.287,0-0.504-0.072-0.792c-0.071-0.288-0.215-0.504-0.359-0.647v-1.08l0.072,0.072c0.216,0.287,0.432,0.647,0.576,1.008
			c0.144,0.432,0.215,0.791,0.215,1.224s-0.071,0.792-0.287,1.151C88.848,92.258,88.632,92.474,88.416,92.69L88.416,92.69z
			 M88.416,86.354l3.023,2.736l-0.791,0.936l0.287,0.216l2.592-2.88l-0.287-0.216l-0.793,0.864l-4.031-3.528V86.354L88.416,86.354z
			 M88.416,82.034V81.17c0.072,0.071,0.072,0.071,0.145,0.144c0.144,0.071,0.287,0.144,0.504,0.216c0.215,0,0.432,0,0.647-0.072
			c0.288-0.072,0.504-0.216,0.72-0.359c0.217-0.145,0.432-0.288,0.721-0.504c0.287-0.217,0.432-0.36,0.576-0.432
			c0.647-0.505,1.295-0.793,1.871-0.865c0.576-0.071,1.152,0.072,1.729,0.504c0.072,0,0.072,0,0.072,0.072h0.071
			c0.36,0.289,0.576,0.576,0.792,0.937c0.217,0.36,0.432,0.72,0.504,1.08c0.072,0.432,0,0.792-0.072,1.224
			c-0.144,0.432-0.359,0.864-0.647,1.225c-0.216,0.287-0.433,0.504-0.72,0.72c-0.288,0.216-0.576,0.36-0.864,0.432
			c-0.071,0.072-0.216,0.072-0.216,0.144c-0.072,0.072-0.072,0.072-0.072,0.145s0,0.145,0.072,0.216c0,0.144,0,0.216,0.072,0.36
			l-0.145,0.216l-2.016-1.584l0.216-0.216c0.288,0.145,0.576,0.216,0.792,0.216c0.216,0.072,0.504,0.072,0.792,0.072
			c0.216-0.072,0.504-0.072,0.792-0.216c0.359-0.145,0.72-0.36,1.08-0.793c0.145-0.215,0.359-0.504,0.432-0.863
			c0.072-0.288,0.145-0.648,0.072-1.008c0-0.217-0.072-0.504-0.216-0.721c-0.144-0.287-0.36-0.504-0.505-0.647
			c-0.215-0.144-0.359-0.216-0.504-0.288c-0.287,0-0.504,0-0.791,0.072c-0.217,0.072-0.504,0.144-0.648,0.287
			c-0.216,0.145-0.504,0.36-0.863,0.576c-0.361,0.289-0.576,0.433-0.648,0.504c-0.36,0.217-0.721,0.433-1.08,0.576
			c-0.36,0.145-0.792,0.217-1.152,0.145c-0.359,0-0.72-0.072-1.08-0.36c-0.144-0.071-0.216-0.071-0.287-0.144
			C88.561,82.178,88.488,82.106,88.416,82.034L88.416,82.034z M88.416,78.65v-0.504c0.288-0.36,0.648-0.576,1.08-0.72
			c0.216-0.072,0.287-0.145,0.359-0.217c0,0,0,0,0-0.072c0,0,0-0.071,0-0.144c-0.072-0.071-0.072-0.144-0.072-0.288L90,76.49
			l1.656,1.296l-0.145,0.217c-0.504-0.145-0.936-0.217-1.296-0.217s-0.72,0.072-1.08,0.288
			C88.848,78.217,88.632,78.434,88.416,78.65z M88.416,78.146v0.504l0,0c-0.36,0.504-0.504,1.008-0.432,1.513
			c0,0.432,0.144,0.791,0.432,1.008v0.863c-0.288-0.287-0.504-0.576-0.648-0.936c-0.216-0.432-0.216-0.936-0.144-1.368
			c0.071-0.504,0.288-0.937,0.575-1.296C88.271,78.29,88.344,78.217,88.416,78.146L88.416,78.146z M88.416,84.482l-2.448-2.304
			l0.792-0.864l-0.216-0.288l-2.376,2.664v0.432v0.072l0.792-0.936l3.456,3.096V84.482L88.416,84.482z M88.416,88.514v1.08
			l-0.072-0.072c-0.072-0.145-0.216-0.288-0.432-0.359c-0.145-0.145-0.432-0.145-0.721-0.145c-0.215,0-0.504,0.072-0.72,0.145
			c-0.216,0.071-0.575,0.215-0.936,0.359c-0.36,0.216-0.648,0.288-0.72,0.359c-0.217,0.072-0.433,0.145-0.648,0.217V88.37
			c0.216-0.144,0.432-0.216,0.576-0.287c0.72-0.361,1.367-0.505,2.016-0.505c0.576,0.072,1.08,0.36,1.584,0.864
			C88.344,88.514,88.416,88.514,88.416,88.514L88.416,88.514L88.416,88.514z M88.416,92.186v0.504
			c-0.072,0.145-0.217,0.288-0.36,0.359c-0.216,0.217-0.504,0.36-0.792,0.504c-0.359,0.145-0.648,0.289-0.936,0.289
			c-0.145,0-0.217,0.072-0.288,0.072c0,0.071-0.072,0.071-0.072,0.144c0,0.071,0,0.144,0,0.288c0,0.072,0,0.216,0,0.287
			l-0.216,0.145l-1.584-1.872l0.216-0.144c0.288,0.144,0.576,0.216,0.792,0.359c0.217,0.072,0.432,0.145,0.721,0.145
			c0.287,0.072,0.504,0.072,0.791,0c0.433-0.072,0.864-0.217,1.225-0.504C88.128,92.545,88.271,92.402,88.416,92.186L88.416,92.186z
			 M84.168,96.65v-0.504l0.216,0.36L84.168,96.65L84.168,96.65z M84.168,85.562v-1.009l1.008,1.152l-0.216,0.217
			C84.672,85.778,84.384,85.633,84.168,85.562z M84.168,83.69v0.432l-0.216-0.216L84.168,83.69L84.168,83.69z M84.168,84.553
			l-0.359-0.432l-0.217,0.217c-0.072,0.071-0.072,0.144-0.072,0.215c0,0.072,0,0.145,0,0.217c0,0,0,0,0,0.072
			c-0.072,0-0.216,0-0.432,0.072c-0.216,0-0.359,0.071-0.576,0.144v0.432c0,0,0.072,0,0.145,0c0.359-0.144,0.72-0.144,1.08-0.071
			c0.144,0,0.287,0.071,0.432,0.144V84.553L84.168,84.553z M84.168,88.37v1.729c-0.216,0.072-0.359,0.072-0.576,0.144
			c-0.359,0.072-0.72,0-1.08-0.071v-1.225l0,0c0.288-0.072,0.504-0.145,0.792-0.216c0.216-0.072,0.505-0.216,0.792-0.36H84.168
			L84.168,88.37z M84.168,96.146v0.504l-0.145,0.071l-1.512-0.791v-2.377L84.168,96.146z M82.512,85.058v0.432
			c-0.287,0.144-0.504,0.288-0.72,0.433c-0.433,0.359-0.647,0.791-0.72,1.367c-0.072,0.432,0,0.864,0.287,1.225
			c0.145,0.144,0.289,0.216,0.504,0.359c0.145,0.072,0.361,0.072,0.648,0.072v1.225h-0.072c-0.359-0.072-0.647-0.289-1.008-0.576
			c-0.072-0.072-0.144-0.145-0.144-0.217c-0.36-0.359-0.505-0.791-0.576-1.224c-0.144-0.504-0.071-0.937,0.071-1.44
			c0.217-0.359,0.505-0.791,0.865-1.08C81.936,85.418,82.225,85.202,82.512,85.058L82.512,85.058z M82.512,93.553l-3.096-4.967
			l0.936-0.576l-0.216-0.289l-2.159,1.441l0.144,0.287l0.936-0.576l3.384,5.4l-6.983-3.6l-0.504,0.287v1.008l7.56,3.961V93.553
			L82.512,93.553z M74.952,101.69v-0.504c0.144-0.145,0.216-0.217,0.36-0.288c0.215-0.288,0.359-0.647,0.359-1.008
			s0-0.864-0.145-1.44l0.289-0.144l1.008,2.52L74.952,101.69L74.952,101.69z M74.952,93.122v-0.791l4.247,6.695l0.865-0.576
			l0.215,0.36l-2.159,1.368l-0.216-0.36l0.863-0.576L74.952,93.122z M74.952,90.961v1.008l-0.288-0.144l0.288,0.505v0.791
			l-0.792-1.224l-0.864,0.504l-0.144-0.216L74.952,90.961L74.952,90.961z M74.952,101.186c-0.216,0.145-0.433,0.288-0.792,0.432
			l-1.801,0.792l-1.728-3.96c0.433-0.144,0.792-0.287,1.08-0.287c0.288-0.072,0.504,0,0.72,0.144
			c0.217,0.144,0.432,0.432,0.721,0.864l0.287-0.145L72,95.858l-0.288,0.072c0.071,0.432,0.144,0.72,0.144,1.008
			c-0.072,0.216-0.215,0.432-0.359,0.648c-0.217,0.144-0.504,0.287-0.864,0.432l-0.216,0.145l-1.584-3.673l1.584-0.72
			c0.72-0.36,1.296-0.432,1.729-0.36c0.504,0.144,0.863,0.505,1.295,1.152l0.289-0.144l-0.937-2.088l-5.761,2.592v0.359l0.433-0.216
			l3.601,7.992l-1.009,0.36l0.144,0.359l4.753-2.088V101.186L74.952,101.186z M67.031,104.642v-0.36l0.505-0.216l0.071,0.36
			L67.031,104.642L67.031,104.642z M67.031,97.01v-1.297l0.576,1.729l-0.359,0.145C67.176,97.37,67.104,97.226,67.031,97.01z
			 M67.031,94.922v0.359l-0.504,0.217l-0.144-0.289L67.031,94.922L67.031,94.922z M67.031,95.713l-0.287-0.791l-6.408,1.799v0.072
			l0.504-0.072v0.361l-0.504,0.071v2.017l0.072,0.432l0.287-0.072c0-0.504,0-0.936,0-1.152c0-0.287,0.072-0.504,0.145-0.791
			c0.145-0.289,0.288-0.504,0.504-0.648c0.288-0.145,0.576-0.288,1.008-0.432l0.289-0.072l2.447,8.352l-1.152,0.36l0.072,0.36
			l3.023-0.864v-0.36l-0.575,0.145l-2.448-8.353l0.217-0.071c0.432-0.145,0.791-0.217,1.079-0.217c0.36,0,0.648,0.072,0.864,0.217
			c0.359,0.287,0.648,0.647,0.863,1.008V95.713L67.031,95.713z M60.336,106.442v-2.016l0.145,2.016H60.336z M60.336,96.721v0.072
			l-2.088,0.145v0.359l1.08-0.144l0.504,6.408l-4.536-6.408l-2.664,0.144l0.072,0.36l0.937-0.071l0.575,8.711l-1.008,0.072v0.36
			l2.592-0.216l-0.071-0.36l-1.009,0.072l-0.647-8.496l5.976,8.712h0.288v-2.016l-0.504-7.272h0.504v2.017l-0.576-2.232
			L60.336,96.721L60.336,96.721z M48.096,103.058v-0.36l1.224,0.072l-0.936-3.889l-0.288,0.793v-0.937l0.792-1.872h0.36l2.376,9.504
			l0.936,0.072v0.359l-3.6-0.287l0.072-0.36l1.152,0.144l-0.72-3.096L48.096,103.058z M48.096,98.738v0.937l-1.224,2.879
			l1.224,0.145v0.36l-1.368-0.072l-1.224,2.952l1.152,0.072v0.359l-2.52-0.144v-0.36l0.936,0.072L48.096,98.738L48.096,98.738z
			 M44.136,104.137l0.144-0.575h-0.144V104.137z M44.136,103.562v0.575l-0.72,1.945l-5.616-1.584v-0.361h0.072l2.376-8.352
			l-1.08-0.359l0.072-0.289l3.744,1.009l-0.144,0.36l-1.224-0.36l-2.376,8.353l1.872,0.575c0.72,0.216,1.296,0.216,1.728-0.071
			c0.216-0.217,0.504-0.433,0.648-0.648c0.216-0.288,0.432-0.504,0.576-0.864L44.136,103.562L44.136,103.562z M44.136,105.866
			l-0.216-0.072v0.433h0.216V105.866L44.136,105.866z M37.8,98.738c0.36-0.216,0.648-0.575,0.936-1.08
			c0.144-0.504,0.216-0.937,0.144-1.296c-0.072-0.359-0.216-0.72-0.504-1.008c-0.144-0.288-0.36-0.432-0.576-0.648V98.738z
			 M37.8,94.706v4.032l-0.072,0.072c-0.216,0.071-0.36,0.144-0.576,0.216v-1.512c0.072-0.145,0.072-0.288,0.144-0.432
			c0.288-0.576,0.36-1.08,0.288-1.44c-0.072-0.36-0.216-0.648-0.432-0.864v-0.432c0.072,0.072,0.216,0.144,0.36,0.216
			C37.584,94.562,37.656,94.633,37.8,94.706L37.8,94.706z M37.8,104.137v0.361l-0.648-0.217v-0.359L37.8,104.137z M37.152,94.346
			v0.432H37.08c-0.216-0.216-0.648-0.432-1.152-0.648c-0.144-0.071-0.288-0.144-0.36-0.144v-0.36l0.576,0.217l0.144,0.072
			C36.576,94.058,36.864,94.202,37.152,94.346L37.152,94.346z M37.152,97.514v1.512c-0.288,0.072-0.504,0.072-0.792,0.072
			s-0.504-0.072-0.792-0.072v-0.504c0.072,0,0.144,0,0.144,0c0.36,0,0.648-0.145,0.864-0.359
			C36.792,98.018,36.936,97.801,37.152,97.514L37.152,97.514z M37.152,103.922v0.359l-0.504-0.145l0.072-0.359L37.152,103.922z
			 M35.568,93.625v0.36l0,0c-0.144-0.071-0.216-0.071-0.36-0.144l-1.728,4.104c0.504,0.217,0.936,0.36,1.296,0.432
			c0.288,0.145,0.504,0.145,0.792,0.145v0.504c-0.216-0.072-0.432-0.145-0.72-0.216c-0.432-0.144-1.008-0.288-1.512-0.504
			l-1.512,3.528l1.008,0.432l-0.144,0.359l-2.52-1.08v-0.432l0.36,0.217l3.456-8.064l-1.008-0.36l0.144-0.36L35.568,93.625
			L35.568,93.625z M30.168,97.514c0.216-0.288,0.504-0.648,0.72-1.008c0.288-0.433,0.504-0.937,0.648-1.513
			c0.144-0.504,0.216-1.079,0.144-1.655c0-0.504-0.144-1.08-0.36-1.584c-0.216-0.433-0.576-0.864-1.008-1.225
			c-0.072-0.072-0.144-0.145-0.144-0.145v0.433c0.288,0.288,0.504,0.647,0.648,1.08c0.072,0.433,0,0.864-0.144,1.296
			c-0.072,0.432-0.288,0.864-0.504,1.368V97.514z M30.168,90.385v0.433h-0.072c-0.072-0.144-0.216-0.216-0.36-0.288
			c-0.288-0.216-0.648-0.288-0.936-0.359c-0.36,0-0.72,0-1.008,0.144c-0.432,0.216-0.864,0.504-1.224,1.008
			c-0.432,0.504-0.864,1.08-1.296,1.8v0.072v-2.447c0.072-0.072,0.144-0.145,0.288-0.217c0.648-0.432,1.368-0.72,2.16-0.792
			c0.792-0.144,1.512,0.072,2.16,0.433C29.952,90.242,30.024,90.314,30.168,90.385L30.168,90.385z M30.168,94.562v2.952
			c-0.144,0.144-0.288,0.287-0.432,0.432c-0.504,0.432-0.936,0.721-1.512,0.936c-0.504,0.217-1.08,0.289-1.656,0.289
			c-0.432,0-0.864-0.145-1.296-0.36v-0.36c0.72,0.288,1.296,0.288,1.944-0.072c0.648-0.359,1.296-1.008,1.8-1.943
			c0.216-0.288,0.36-0.576,0.504-0.721C29.736,95.282,29.952,94.922,30.168,94.562L30.168,94.562z M30.168,101.114v0.432
			l-0.72-0.287l0.144-0.36L30.168,101.114L30.168,101.114z M25.272,89.81l1.296-1.368l-1.296-1.225v0.865
			c0,0.071,0,0.144,0.072,0.215c0,0.217,0,0.433-0.072,0.721V89.81z M18.288,84.482l2.088-1.584l-0.648-0.864l0.216-0.216
			l1.656,2.017l-0.288,0.215l-0.648-0.791l-2.376,1.8V84.482L18.288,84.482z M25.272,87.217l-3.744-3.6l-0.216,0.288l0.72,0.72
			l-3.744,3.889v2.088l1.8-1.872c0.288,0.36,0.576,0.647,0.648,0.937c0.144,0.215,0.216,0.504,0.144,0.719
			c-0.072,0.289-0.216,0.576-0.576,1.009l0.288,0.144l2.448-2.52l-0.216-0.217c-0.36,0.289-0.648,0.433-0.864,0.505
			c-0.288,0.071-0.504,0-0.72-0.072c-0.216-0.144-0.504-0.288-0.792-0.576l-0.144-0.144l2.808-2.881l1.224,1.225
			c0.504,0.432,0.792,0.863,0.936,1.225V87.217L25.272,87.217z M25.272,89.018v0.792l-0.288,0.288l-0.216-0.217
			C24.984,89.594,25.2,89.306,25.272,89.018L25.272,89.018z M25.272,90.747v2.447c-0.072,0.072-0.144,0.216-0.288,0.432
			c-0.216,0.36-0.432,0.793-0.648,1.225c-0.144,0.359-0.288,0.792-0.36,1.224c-0.072,0.433,0,0.864,0.144,1.224
			c0.144,0.36,0.36,0.648,0.792,0.937c0.144,0.072,0.216,0.144,0.36,0.216v0.36c-0.144,0-0.288-0.072-0.432-0.144
			c-0.72-0.433-1.224-1.009-1.512-1.729c-0.288-0.721-0.36-1.512-0.216-2.305c0.072-0.791,0.36-1.584,0.792-2.303
			C24.264,91.754,24.696,91.178,25.272,90.747L25.272,90.747z M18.288,93.553v-0.504l0.216,0.217c0.36,0.359,0.72,0.648,1.08,0.72
			c0.36,0.144,0.72,0.144,1.08,0c0.288-0.071,0.72-0.288,1.224-0.647l0.288,0.215l-2.016,1.873L18.288,93.553z M9.072,83.114
			l0.288-0.216l0.648,0.792l6.84-5.328L16.2,77.499l0.288-0.145l1.656,2.16l-2.808,7.271l2.952-2.304v0.576l-4.968,3.888
			l-0.216-0.288l3.888-9.864l-6.768,5.256l0.72,0.865l-0.288,0.215L9.072,83.114L9.072,83.114z M18.288,88.514l-2.304,2.376
			l-0.72-0.72l-0.288,0.215l3.312,3.168v-0.504l-1.224-1.151l1.224-1.296V88.514z"/>
	</g>
</g>
</svg>
